<?xml version="1.0" encoding="UTF-8"?>
<!DOCTYPE svg PUBLIC "-//W3C//DTD SVG 1.1//EN" "http://www.w3.org/Graphics/SVG/1.1/DTD/svg11.dtd">
<!-- Creator: CorelDRAW 2019 (64-Bit) -->
<svg xmlns="http://www.w3.org/2000/svg" xml:space="preserve" width="261mm" height="67mm" version="1.1" style="shape-rendering:geometricPrecision; text-rendering:geometricPrecision; image-rendering:optimizeQuality; fill-rule:evenodd; clip-rule:evenodd"
viewBox="0 0 26100 6700"
 xmlns:xlink="http://www.w3.org/1999/xlink">
 <defs>
  <style type="text/css">
   <![CDATA[
    .fil1 {fill:#585859}
    .fil0 {fill:#AD0F00}
    .fil3 {fill:url(#id0)}
    .fil2 {fill:url(#id1)}
    .fil4 {fill:url(#id2)}
   ]]>
  </style>
  <linearGradient id="id0" gradientUnits="userSpaceOnUse" x1="5999.84" y1="409.35" x2="5565.5" y2="6670.21">
   <stop offset="0" style="stop-opacity:1; stop-color:#00A5E1"/>
   <stop offset="0.588235" style="stop-opacity:1; stop-color:#007AC0"/>
   <stop offset="1" style="stop-opacity:1; stop-color:#004F9E"/>
  </linearGradient>
  <linearGradient id="id1" gradientUnits="userSpaceOnUse" x1="1079.92" y1="1539.72" x2="6323.66" y2="1539.72">
   <stop offset="0" style="stop-opacity:1; stop-color:#F16920"/>
   <stop offset="0.223529" style="stop-opacity:1; stop-color:#F16420"/>
   <stop offset="0.501961" style="stop-opacity:1; stop-color:#F6A723"/>
   <stop offset="1" style="stop-opacity:1; stop-color:#F05F21"/>
  </linearGradient>
  <linearGradient id="id2" gradientUnits="userSpaceOnUse" xlink:href="#id0" x1="1837.72" y1="418.1" x2="1402.81" y2="6671.04">
  </linearGradient>
 </defs>
 <g id="Layer_x0020_1">
  <metadata id="CorelCorpID_0Corel-Layer"/>
  <path class="fil0" d="M11606.95 2995.75c-36.77,-29.54 -610.69,-869.69 -677.22,-982.52 -52.1,-88.34 -27.89,-60.45 -339.58,-60.45l0 1965.3 408.72 0 8.69 -982.65c62.25,41.68 396.4,521.7 450.03,605.4 39.63,61.85 67.39,64.15 150,64.21l0 -0.51c82.07,-0.07 109.8,-2.53 149.32,-64.21 53.63,-83.7 388.46,-563.21 450.71,-604.89l8.69 982.65 408.04 -0.51 0 -1965.3c-311.69,0 -287.48,-27.89 -339.58,60.45 -66.87,113.4 -646.36,961.64 -677.82,983.03z"/>
  <path class="fil0" d="M21068.2 2995.75c-36.77,-29.54 -610.69,-869.69 -677.22,-982.52 -52.1,-88.34 -27.89,-60.45 -339.58,-60.45l0 1965.3 408.72 0 8.69 -982.65c62.25,41.68 396.4,521.7 450.03,605.4 39.63,61.85 67.39,64.15 150,64.21l0 -0.51c82.07,-0.07 109.8,-2.53 149.32,-64.21 53.63,-83.7 388.46,-563.21 450.71,-604.89l8.69 982.65 408.04 -0.51 0 -1965.3c-311.69,0 -287.48,-27.89 -339.58,60.45 -66.87,113.4 -646.36,961.64 -677.82,983.03z"/>
  <path class="fil1" d="M25592.06 4496.44c-9.15,32.85 -76.19,259.09 -84.61,291.23l84.61 0 84.61 0c-8.42,-32.14 -75.46,-258.38 -84.61,-291.23zm0 439.07l-145.48 0 -69.57 208.69 -234.79 0 225.02 -635.86c67,-200.37 43.37,-198.01 224.82,-192.33 181.46,-5.68 157.82,-8.04 224.82,192.33l225.02 635.86 -234.79 0 -69.56 -208.69 -145.49 0z"/>
  <polygon class="fil1" points="9616.2,5144.2 10242.31,5144.2 10242.31,4987.69 9842.22,4987.69 9842.29,4796.37 10198.83,4796.37 10198.83,4648.54 9842.29,4648.61 9842.29,4474.62 10224.14,4474.62 10224.92,4318.09 9616.2,4318.09 "/>
  <polygon class="fil1" points="24608.11,5144.2 24833.87,5144.17 24833.66,4318.37 24608.11,4318.09 "/>
  <polygon class="fil1" points="17112.16,5144.2 17337.91,5144.17 17337.7,4318.37 17112.16,4318.09 "/>
  <path class="fil2" d="M2069.44 404.91c-20.95,40.42 -159.78,180.81 -211.61,250.55 -147.9,199 -242.87,313.95 -376.22,545.4 -55.14,95.71 -112.94,201.73 -160.37,309.48 -160.06,363.63 -272.19,734.94 -233.71,1153.86 14.17,154.43 49.2,250.45 81.87,384.28 38.43,-34.38 182.78,-301.95 287.21,-437.54 104.44,-135.59 492.6,-455.46 666.44,-542.31 173.83,-86.85 208.98,-106.27 328.65,-149.62 642.53,-232.72 1455.06,-273.8 2124.52,-126.45 234.27,51.56 509.43,139.27 709.76,255.5 125.34,72.71 167.84,88.99 294.06,184.21l134.26 109.24c176.15,148.96 318.99,328.52 437.26,527.99 30.75,51.88 55.78,109.87 81.9,162.59 44.73,-61.52 74.12,-270.96 83.51,-375.86 13.16,-147.21 6.26,-297.56 -15.14,-440.95 -85.23,-570.86 -411.28,-1132.36 -759,-1563.22 -30.63,-37.94 -203.99,-235.03 -209.61,-255.85l-353.3 -146.52c-260.26,-96.88 -520.51,-157.26 -804.77,-195.28 -86.23,-11.53 -177.98,-19.3 -273.23,-23.43l-338.99 0c-405.16,16.48 -830.91,90.16 -1149.55,214.86 -32.11,12.56 -56.38,20.38 -87.43,34.32 -52.64,23.63 -210.55,89.42 -252.04,120.94 -0.91,0.69 -3.07,2.43 -4.47,3.81zm-18.76 3.04l5.42 -3.04 -5.42 3.04z"/>
  <path class="fil3" d="M6233.46 3032.09c-123.52,500.94 -773.05,1164.49 -1233.48,1348.22 -215.04,79.56 -453.06,102.53 -555.12,305.78 -186.46,371.33 -247.89,1047.38 -246.29,1475.52 1.38,371.05 -31.29,564.87 331,513.62 332.32,-47.02 608.14,-157.02 863.28,-284.6l273.68 -152.42c316.81,-199.66 616.2,-437.16 852.68,-729.99 20.66,-25.59 41.77,-49.76 64.05,-75.09 62.08,-70.61 250.02,-347.26 293.7,-428.06l200.01 -384.48 58.38 -139.77c21.41,-53.51 39.28,-94.07 57.99,-150.71 110.65,-335.11 190.54,-687.13 170.65,-1055.58 -17.86,-330.69 -71.56,-539.27 -172.89,-844.54 -33.71,-101.52 -78.76,-191.01 -120.32,-288.41 -73.75,-172.88 -270.18,-470.88 -393.73,-632.38 -118.57,-154.99 -290.02,-343.36 -432.55,-480.54l-166.29 -146.76c-164.26,-132.68 -289.23,-231.6 -474.44,-342.98 -46.67,-28.07 -88.57,-49.67 -135.56,-73.15 -35.74,-17.85 -106.4,-48.47 -134.99,-69.56 5.62,20.82 178.98,217.91 209.61,255.85 347.72,430.86 673.77,992.36 759,1563.22 21.4,143.39 28.3,293.74 15.14,440.95 -9.39,104.9 -38.78,314.34 -83.51,375.86z"/>
  <path class="fil4" d="M1601.99 669.28c-213.11,147.1 -393.41,312.49 -575.26,494.34l-126.25 134.63c-20.74,21.36 -23.56,31.04 -43.35,52.32 -100.84,108.47 -224.5,286.22 -305.66,407.41l-130.64 217.19c-72.94,122.93 -173.3,347.8 -221.38,491.69 -98.55,294.92 -151.4,557.8 -157.54,847.95l0 115.67c1.87,91.48 8.16,186.27 18.89,286.08 6.83,63.49 35.76,253.11 59.37,301.16 3.49,128.14 232.25,691.32 328.77,849.9 144.88,238.05 137,252.83 334.58,517.61 50.66,67.88 101.1,121.64 152.78,186.37 25.4,31.82 54.38,52.57 81.66,83.57 199.37,226.39 498.82,450.4 752.81,603.76 332.93,201.03 720.36,363.16 1120.75,418.44 320.19,44.22 307.03,-131.31 307.03,-359.21 0,-403.86 -30.79,-1440.38 -306.36,-1737.19 -64.16,-69.1 -143.59,-75.16 -233.9,-105.24 -584.88,-194.88 -1217.27,-749.74 -1446.21,-1327.81 -61.73,-155.91 -109.11,-315.48 -124.55,-483.72 -38.48,-418.92 73.65,-790.23 233.71,-1153.86 47.43,-107.75 105.23,-213.77 160.37,-309.48 133.35,-231.45 228.32,-346.4 376.22,-545.4 51.83,-69.74 190.66,-210.13 211.61,-250.55 -175.25,75.02 -309.52,162.39 -467.45,264.37z"/>
  <path class="fil0" d="M13364.18 3552.85l-26.09 0 0.05 -494.61 161.94 0.98c299.25,1.81 507.6,31.52 507.61,267.53 0,298.07 -435.27,226.1 -643.51,226.1zm269.58 -843.52l-295.13 -0.74 -0.34 -379.14c127.9,0 386.66,-33.63 504.05,32.18 115.57,64.78 156.1,347.7 -208.58,347.7zm-704.38 -756.55l0 1965.3 913.08 0c167.61,0 330.48,-80.26 423.58,-159.05 87.08,-73.7 193.84,-232.91 193.84,-388.8 0,-152.45 -4.88,-225.23 -93.76,-358.43 -41.26,-61.84 -132.25,-139.9 -193.2,-180.72 40.24,-60.1 131.89,-118.81 183.83,-285.74 9.25,-29.67 23.39,-103.31 24.47,-140.86 4.72,-164.27 -106.7,-316.8 -251.51,-391.1 -155.48,-79.77 -344.36,-60.6 -574.22,-60.6l-626.11 0z"/>
  <path class="fil0" d="M17132.38 3538.64c-73.86,0 -129.66,0.36 -211.53,0.36l0 -1160.11c61.03,-14.22 217.92,-17.4 295.66,-17.4 284.67,0 441.48,104.05 516.35,344.57 50.04,160.76 54.74,352.14 -2.01,508.92 -89.11,246.18 -352.56,323.66 -598.47,323.66zm-646.33 -1577.08l0 1965.17 808.72 0.04c329.13,0 643.95,-157.49 784.54,-380.72 59.16,-93.92 102.34,-243.22 117.48,-352.12 5.19,-37.3 10,-67.71 11.05,-101.99 4.52,-146.81 20.59,-181.46 -15.01,-367.57 -56,-292.68 -193.51,-545.82 -460.25,-678.92 -68.03,-33.95 -127.73,-56.78 -216.42,-70.56 -316.32,-49.16 -702.63,-13.33 -1030.11,-13.33z"/>
  <path class="fil0" d="M24312.45 3918.08l400.02 0 0.1 -1126.74 323.83 368.01 644.31 738.34c23.57,26.99 82.86,14.99 293.44,14.99l-0.04 -1951.2 -426.83 0.36 0 1121.43 -949 -1121.99 -285.86 0.49 0.03 1956.31z"/>
  <path class="fil0" d="M8772.7 2952.83c0,-192.13 46.03,-321.58 184.5,-441.61 54.72,-47.44 100.75,-73.95 175.66,-102.61 551.64,-211.02 940.26,364.34 742.73,777.51 -26.07,54.53 -76.33,128.39 -120.31,166.65 -177.1,154.07 -407.09,224.25 -639.89,126.95 -129.17,-53.98 -228.63,-162.27 -285.61,-288.32 -31.84,-70.46 -57.08,-140.79 -57.08,-238.57zm-443.5 -17.4c0,333.47 169.05,662.22 438.21,840.1 493.87,326.39 1065.55,208 1407.87,-246.23 255.89,-339.55 242.69,-808.6 11.37,-1155.63 -18.87,-28.31 -28.93,-46.48 -50.89,-70.85 -95.68,-106.15 -202.81,-215.25 -340.57,-276.84 -176.69,-78.99 -255.73,-99.28 -465.96,-99.28 -526.44,0 -1000.03,453.38 -1000.03,1008.73z"/>
  <path class="fil0" d="M14677.28 1961.48l0 1373.97c0,183.95 127.87,361.06 239.8,438.48 225.43,155.91 522.94,183.63 801.68,124.72 162.49,-34.35 303.91,-119.12 395.22,-256.98 18.49,-27.92 35.9,-51.06 50.58,-79.86 57.96,-113.78 78.41,-270.84 78.02,-443.76l-8.71 -1156.57 -434.81 0 0 1000.04c0,219.66 0.83,562.84 -287.11,574.2 -82.78,3.26 -214.36,7.47 -289.17,-58.79 -75.52,-66.9 -102.01,-156.81 -102.01,-263.22l0 -1253c-158.65,0 -286.43,0.77 -443.49,0.77z"/>
  <path class="fil0" d="M18433.95 2561.51c0,383.55 419.73,503.88 693.15,611.25 155.23,60.95 237.32,64.56 237.32,232.25 0,201.25 -552.03,196.67 -765.24,-121.74l-276.62 287.3c0,0 5.85,43.74 144.05,149.62 116.68,89.41 397.35,232.67 602.15,232.67l113.05 0c302.46,0 660.89,-243.56 660.89,-591.33 0,-235.03 -105.95,-380.34 -279.77,-494.16 -23.77,-15.57 -45.55,-25.7 -71.74,-41.32 -140.99,-84.19 -339.8,-135.08 -474.52,-195.07 -54.22,-24.14 -104.43,-43.24 -104.43,-121.65 0,-59.19 41.64,-114.69 76.66,-140.73 215.01,-159.86 493,99.46 558.14,114.64l234.79 -269.58c-70.62,-105.47 -211.96,-186.22 -332.77,-232.47 -203.6,-77.92 -499.79,-85.33 -707.95,26.57 -66.03,35.51 -108.54,77.6 -157.3,129.66 -70.99,75.8 -149.86,278.16 -149.86,424.09z"/>
  <path class="fil0" d="M23216.75 2613.68l191.32 504.36 -373.93 0c8.41,-17.53 11.74,-38.47 18.45,-59.8 6.29,-20 13.65,-40.91 21.75,-65.22l142.41 -379.34zm-185.03 -651.88c-5.25,63.13 -723.2,1906.75 -728.05,1964.97l434.8 0c2.82,-33.82 24.38,-72.17 37.23,-101.91l128 -315.5 634.81 0 107.98 309.42c12.68,33.15 33.01,69.91 39.85,99.3l417.4 0c0,-70.44 -121.79,-401.35 -160.19,-500.7l-271.35 -728.69c-30.68,-85.96 -63.16,-163.14 -91.28,-247.86l-166.92 -479.69 -382.28 0.66z"/>
  <path class="fil1" d="M17729.58 5144.16l208.7 0.04 0 -556.53c34.84,25.53 261.47,406.22 331.53,503.29 32.79,45.44 16.82,50.34 89.07,53.45l188.13 -0.21 0 -826.11 -200.22 0 0.2 539.16 -255.86 -396.35 -83.28 -142.81 -278.27 0 0 826.07z"/>
  <path class="fil1" d="M19164.42 5005.07c0,-192.34 -0.36,-355.09 -0.36,-547.84 163.29,0 409.07,-4.12 409.07,252.18 0,109.94 -40.82,192.8 -111.04,236.8 -70.07,43.91 -185.71,58.86 -297.67,58.86zm-226.09 -686.69l0 799.74c0,68.79 626.02,101.57 808.88,-173.77 67.27,-101.3 60.71,-164.19 60.71,-278.42 0,-258.68 -302.46,-373.93 -547.85,-373.93 -40.48,2.07 -296.55,3.07 -321.74,26.38z"/>
  <path class="fil1" d="M13059.82 5005.07l0 -226.09c344.86,0 332.48,166.84 170.61,214.09 -54.3,15.86 -119.48,23.92 -170.61,12zm0 -365.23l0.22 -191.31c97.78,0 251.96,-9.59 251.96,104.35 0,37.83 -66.68,59.8 -97.06,68.17 -28.59,7.88 -122.33,18.79 -155.12,18.79zm-226.14 -319.63c0,285.31 0.05,539.47 0.05,823.99 49.61,0 60.15,8.7 113.04,8.7 160.37,0 355.11,13.66 492.97,-54.87 152.93,-76.04 188.02,-267.27 33.91,-367.64 -25.63,-16.69 -41.45,-17.9 -65.98,-29.67 32.44,-48.46 130.44,-59.32 130.44,-191.32 0,-287.3 -536.47,-189.19 -704.43,-189.19z"/>
  <path class="fil1" d="M20347.08 4735.5c0,-345.87 469.58,-408.4 469.58,17.39 0,338.83 -469.58,329.28 -469.58,-17.39zm173.91 417.4c147.49,0 294.96,-6.32 402.39,-110.68 102.53,-99.59 136.77,-173.9 136.77,-332.81 0,-389.26 -504.29,-524.81 -791.55,-304.57 -312.17,239.33 -138.29,748.06 252.39,748.06z"/>
  <path class="fil1" d="M8764 4674.63l0 -217.4c34.43,-0.77 170.67,-31.04 236.61,41.66 48.66,53.66 28.83,140.28 -70.86,167.58 -22.75,6.22 -53.24,8.8 -83.89,12.32 -45.53,5.23 -33.53,-4.16 -81.86,-4.16zm-226.1 -356.54l0 826.11 226.1 0 0 -321.74c111.63,0 175.98,-0.7 222.61,116.53 24.72,62.15 43.75,139.04 66.36,204.89l224.09 0.32c-1.4,-62.99 -56.51,-241.2 -106.59,-310.81 -21.06,-29.26 -38.77,-61.85 -76.03,-71.81 17.39,-23.72 250.61,-154.38 125.77,-334.46 -83.97,-121.12 -373.49,-137.16 -544.5,-119.06 -42.41,4.5 -101.17,10.03 -137.81,10.03z"/>
  <path class="fil1" d="M15494.7 5144.22l222.13 0 2.9 -271.08 79.33 -68.07 171.34 246.07c39.85,53.27 67.01,87.97 104.39,88.7l219.94 4.36 -321.74 -460.88 304.35 -365.23c-293.62,0 -247.87,-50.54 -445.96,214.94l-113.5 130.91 2.92 -345.85 -226.1 0 0 826.13z"/>
  <path class="fil1" d="M11642.37 4474.62c0,200.97 -43.29,504.31 144.72,620.53 147.03,90.89 533.87,105.91 628.16,-143.32 60.83,-160.78 35.85,-419.06 35.85,-633.74l-226.09 0c0,140.28 26.5,566.66 -55.73,639.95 -58.97,52.56 -275.46,127.24 -300.37,-196.89 -11.23,-146.01 -1.9,-296.02 -0.45,-443.06l-226.09 0 0 156.53z"/>
  <polygon class="fil1" points="22625.43,5144.2 23251.54,5144.2 23251.54,4987.69 22851.45,4987.69 22851.52,4796.37 23208.06,4796.37 23208.06,4648.54 22851.52,4648.61 22851.52,4474.62 23233.37,4474.62 23234.15,4318.09 22625.43,4318.09 "/>
  <path class="fil1" d="M10807.56 4700.72l0.2 -245.19c72.58,0 91.98,-3.96 170.23,5.18 123.3,26.12 119.55,189.16 8.64,227.77 -50.4,17.53 -115.38,12.24 -179.07,12.24zm-217.41 -382.63l0 826.11 217.41 0 0.2 -297.07c21.49,10.31 127.57,4.9 171.55,-0.76 437.21,-56.22 358.31,-394.32 201.97,-484.6 -129.08,-74.54 -374.34,-67.19 -528.93,-51.06 -26.64,2.79 -25,7.38 -62.2,7.38z"/>
  <path class="fil1" d="M23912.44 4987.69c-218.68,0 -239.17,-24.19 -313.06,-34.79l-34.78 156.53c71.24,34.18 340.33,47.59 437.42,28.7 101.33,-19.71 175.66,-62.01 214.95,-150.27 147.94,-332.34 -408.88,-324.41 -408.88,-452.37 0,-45.25 80.27,-78.26 130.44,-78.26 78.86,0 150.24,22.8 217.39,34.79l34.79 -139.14c-143.68,-96.21 -582.55,-75.92 -621.91,178.74 -27.08,175.13 198.42,236.09 311.47,279.52 199.49,76.65 126.51,176.55 32.17,176.55z"/>
  <polygon class="fil1" points="13938.11,5144.2 14546.84,5144.2 14546.84,4987.69 14164.22,4987.48 14164.22,4318.09 13938.11,4318.09 "/>
  <polygon class="fil1" points="14885.98,5144.2 15111.73,5144.17 15111.53,4318.37 14885.98,4318.09 "/>
  <path class="fil1" d="M21407.98 5144.41l208.71 0.04 0 -556.54c34.84,25.54 261.46,406.23 331.52,503.3 32.79,45.43 16.82,50.33 89.08,53.45l188.12 -0.21 0 -826.11 -200.22 0 0.2 539.15 -255.85 -396.34 -83.29 -142.81 -278.27 0 0 826.07z"/>
 </g>
</svg>
