<svg xmlns="http://www.w3.org/2000/svg" width="252.695" height="228.233" xmlns:v="https://vecta.io/nano"><style><![CDATA[.B{fill:#231f20}.C{fill:#fab20b}.D{fill:#fff}.E{fill:#00a650}]]></style><path d="M48.26 228.233L0 87.177 126.351 0l126.344 87.177-48.261 141.056z" class="B"/><path d="M199.082 220.619H53.614l-.204-.596L8.695 89.332 126.344 8.155l117.652 81.177-.208.611zM126.344 2.731L3.315 87.621 50.33 225.043h152.036L249.38 87.621z" class="D"/><path d="M126.866 8.513l-.521-.36L8.695 89.332 53.41 220.021l.204.597h145.468l44.707-130.676.208-.611z" class="B"/><path d="M54.766 218.728L10.523 89.421 126.346 9.504l115.828 79.917-44.243 129.307z" fill="#275ab1"/><path d="M150.014 147.666c-3.145.253-3.995-.965-3.999-.971l-.425-.688-.103.795c-.685 5.327-4.317 7.725-4.359 7.747l-1.495.971 1.732-.473c8.372-2.276 8.935-6.883 8.953-7.076l.033-.332z" class="B"/><path d="M145.961 147.49c-.583 3.424-2.293 5.588-3.436 6.692 5.571-1.877 6.861-4.881 7.148-5.871-2.073.099-3.172-.416-3.712-.821" class="C"/><path d="M140.89 81.342c0-.665-.457-1.252-1.151-1.595.881-.311 1.493-.963 1.493-1.725 0-.581-.363-1.097-.916-1.449h.024l-.009-.649c-.101-5.919-6.448-10.732-14.157-10.732s-14.063 4.813-14.161 10.732l-.011.649h.023c-.553.352-.915.868-.915 1.449 0 .763.612 1.415 1.495 1.725-.693.343-1.152.929-1.152 1.595 0 .765.607 1.421 1.476 1.728-.683.343-1.133.928-1.133 1.596 0 .764.6 1.417 1.457 1.727-.669.344-1.115.929-1.115 1.596 0 .765.596 1.427 1.451 1.732-.663.348-1.111.935-1.111 1.588 0 .755.603 1.421 1.445 1.732-.657.345-1.104.935-1.104 1.591 0 .759.599 1.425 1.432 1.731-.651.348-1.091.937-1.091 1.591 0 .76.596 1.431 1.424 1.737-.64.349-1.08.943-1.08 1.585 0 .747.596 1.425 1.413 1.735-.635.349-1.072.944-1.072 1.587 0 .748.589 1.425 1.396 1.735-.625.351-1.052.944-1.052 1.587 0 .755.591 1.437 1.393 1.744-.6.337-1.053.905-1.053 1.579 0 .796.633 1.439 1.391 1.736-.591.339-1.049.911-1.049 1.588 0 .793.627 1.439 1.377 1.735-.585.339-1.036.911-1.036 1.584 0 .801.628 1.451 1.371 1.743-.579.345-1.025.916-1.025 1.58 0 .787.627 1.444 1.359 1.74-.573.341-1.016.917-1.016 1.583 0 .788.619 1.444 1.34 1.743-.565.34-1.001.913-1.001 1.58 0 .793.62 1.452 1.336 1.748-.557.345-.992.919-.992 1.575 0 .779.616 1.444 1.323 1.745-.552.344-.983.921-.983 1.573 0 .784.611 1.449 1.305 1.751-.537.345-.96.916-.96 1.572 0 .787.603 1.457 1.291 1.753-.529.349-.953.932-.953 1.571 0 .765.604 1.448 1.284 1.749-.527.353-.937.932-.937 1.571 0 .772.596 1.459 1.271 1.76-.519.352-.929.935-.929 1.567 0 .759.607 1.453 1.263 1.752-.499.344-.924.904-.924 1.568 0 .807.629 1.463 1.26 1.755-.499.341-.917.901-.917 1.567 0 .811.623 1.472 1.245 1.759-.484.349-.904.917-.904 1.563 0 .791.619 1.464 1.227 1.76-.473.347-.883.917-.883 1.563 0 .795.615 1.473 1.216 1.767-.468.351-.872.921-.872 1.556 0 .781.609 1.468 1.205 1.765-.464.348-.864.919-.864 1.556 0 1.037 1.065 1.915 1.732 1.915h8.187c.669 0 1.735-.877 1.735-1.915 0-.637-.401-1.208-.861-1.556.588-.297 1.203-.984 1.203-1.765 0-.635-.407-1.205-.875-1.556.605-.293 1.216-.972 1.216-1.767 0-.645-.412-1.216-.887-1.563.613-.296 1.225-.969 1.225-1.76 0-.645-.412-1.213-.899-1.563.623-.287 1.244-.948 1.244-1.759 0-.665-.419-1.225-.913-1.567.628-.292 1.255-.948 1.255-1.755 0-.664-.423-1.224-.92-1.568.657-.299 1.264-.993 1.264-1.752 0-.632-.413-1.215-.929-1.567.669-.301 1.271-.988 1.271-1.76 0-.639-.417-1.217-.94-1.571.679-.301 1.281-.984 1.281-1.749 0-.639-.423-1.221-.952-1.571.687-.296 1.293-.967 1.293-1.753 0-.656-.423-1.227-.959-1.572.691-.301 1.3-.967 1.3-1.751 0-.652-.428-1.229-.977-1.573.701-.301 1.319-.967 1.319-1.745 0-.656-.436-1.229-.988-1.575.716-.296 1.331-.955 1.331-1.748 0-.667-.435-1.24-.997-1.58.719-.299 1.341-.955 1.341-1.743 0-.665-.443-1.241-1.017-1.583.731-.296 1.359-.953 1.359-1.74 0-.664-.445-1.235-1.028-1.58.744-.292 1.369-.941 1.369-1.743 0-.673-.443-1.243-1.035-1.584.751-.296 1.376-.941 1.376-1.735 0-.677-.453-1.249-1.051-1.588.759-.297 1.396-.94 1.396-1.736 0-.673-.457-1.241-1.055-1.579.804-.307 1.392-.989 1.392-1.744 0-.643-.425-1.236-1.053-1.587.808-.309 1.397-.987 1.397-1.735 0-.643-.436-1.237-1.071-1.587.815-.309 1.413-.988 1.413-1.735 0-.643-.439-1.236-1.083-1.585.832-.307 1.424-.977 1.424-1.737 0-.653-.435-1.243-1.087-1.591.833-.305 1.429-.972 1.429-1.731 0-.656-.444-1.245-1.101-1.591.843-.311 1.441-.977 1.441-1.732 0-.653-.445-1.24-1.111-1.588.855-.305 1.453-.967 1.453-1.732 0-.667-.444-1.252-1.117-1.596.86-.309 1.461-.963 1.461-1.727 0-.668-.451-1.253-1.135-1.596.869-.307 1.476-.963 1.476-1.728" class="B"/><path d="M138.632 76.657h-24.919c-1.12 0-2.035.611-2.035 1.365s.915 1.361 2.035 1.361h24.919c1.123 0 2.033-.612 2.033-1.361 0-.755-.911-1.365-2.033-1.365m-24.61 3.321c-1.085 0-2.003.627-2.003 1.364s.917 1.365 2.003 1.365h24.297c1.085 0 2.003-.627 2.003-1.365s-.917-1.364-2.003-1.364zm.308 6.051h23.68c1.069 0 1.968-.627 1.968-1.363s-.899-1.367-1.968-1.367h-23.68c-1.064 0-1.969.625-1.969 1.367 0 .736.905 1.363 1.969 1.363m.312 3.322h23.059c1.051 0 1.936-.623 1.936-1.361 0-.745-.885-1.365-1.936-1.365h-23.059c-1.049 0-1.937.62-1.937 1.365 0 .739.888 1.361 1.937 1.361m.31 3.323h22.437c1.013 0 1.903-.639 1.903-1.365s-.889-1.361-1.903-1.361h-22.437c-1.015 0-1.904.635-1.904 1.361s.889 1.365 1.904 1.365m.311 3.319h21.816c.997 0 1.876-.639 1.876-1.361 0-.729-.879-1.365-1.876-1.365h-21.816c-.999 0-1.873.636-1.873 1.365 0 .723.875 1.361 1.873 1.361m.307 3.324h21.2c.981 0 1.837-.639 1.837-1.363s-.856-1.364-1.837-1.364h-21.2c-.983 0-1.84.635-1.84 1.364s.857 1.363 1.84 1.363m.312 3.321h20.581c.945 0 1.808-.649 1.808-1.363s-.863-1.367-1.808-1.367h-20.581c-.948 0-1.809.653-1.809 1.367s.861 1.363 1.809 1.363m.307 3.321h19.965c.925 0 1.775-.649 1.775-1.361s-.849-1.365-1.775-1.365h-19.965c-.925 0-1.776.649-1.776 1.365s.851 1.361 1.776 1.361m.31 3.324h19.343c.911 0 1.745-.649 1.745-1.365s-.835-1.361-1.745-1.361h-19.343c-.912 0-1.745.645-1.745 1.361s.833 1.365 1.745 1.365m.312 3.322h18.717c.792 0 1.715-.596 1.715-1.364s-.923-1.363-1.715-1.363h-18.717c-.792 0-1.713.593-1.713 1.363s.921 1.364 1.713 1.364m.309 3.323h18.1c.779 0 1.68-.599 1.68-1.364s-.901-1.365-1.68-1.365h-18.1c-.775 0-1.679.596-1.679 1.365s.904 1.364 1.679 1.364m.309 3.321h17.483c.744 0 1.645-.611 1.645-1.365s-.901-1.361-1.645-1.361h-17.483c-.743 0-1.643.607-1.643 1.361s.9 1.365 1.643 1.365m.312 3.32H134.6c.732 0 1.615-.605 1.615-1.361s-.883-1.365-1.615-1.365h-16.859c-.732 0-1.617.611-1.617 1.365s.885 1.361 1.617 1.361m.309 3.325h16.243c.715 0 1.581-.629 1.581-1.365s-.867-1.363-1.581-1.363H118.05c-.712 0-1.58.629-1.58 1.363s.868 1.365 1.58 1.365m.312 3.321h15.619c.697 0 1.552-.632 1.552-1.363 0-.736-.855-1.364-1.552-1.364h-15.619c-.701 0-1.555.628-1.555 1.364 0 .731.853 1.363 1.555 1.363m.306 3.321h15.005c.668 0 1.519-.64 1.519-1.361 0-.736-.836-1.365-1.519-1.365h-15.005c-.68 0-1.516.629-1.516 1.365 0 .721.847 1.361 1.516 1.361m.311 3.323h14.384c.651 0 1.484-.64 1.484-1.365 0-.72-.833-1.361-1.484-1.361h-14.384c-.653 0-1.488.641-1.488 1.361s.835 1.365 1.488 1.365m.312 3.322h13.76c.575 0 1.456-.612 1.456-1.365s-.881-1.363-1.456-1.363h-13.76c-.575 0-1.456.612-1.456 1.363s.881 1.365 1.456 1.365m.307 3.322h13.145c.563 0 1.42-.612 1.42-1.363s-.857-1.363-1.42-1.363h-13.145c-.56 0-1.419.611-1.419 1.363s.859 1.363 1.419 1.363m.311 3.321h12.523c.536 0 1.391-.621 1.391-1.364s-.855-1.363-1.391-1.363h-12.523c-.537 0-1.389.623-1.389 1.363s.852 1.364 1.389 1.364m.311 3.324h11.901c.527 0 1.359-.624 1.359-1.361 0-.745-.832-1.365-1.359-1.365H120.22c-.527 0-1.357.62-1.357 1.365 0 .737.831 1.361 1.357 1.361m.308 3.319h11.285c.499 0 1.327-.635 1.327-1.361s-.828-1.365-1.327-1.365h-11.285c-.497 0-1.323.639-1.323 1.365s.825 1.361 1.323 1.361m.312 3.324h10.66c.44 0 1.297-.617 1.297-1.363s-.857-1.364-1.297-1.364h-10.66c-.44 0-1.295.617-1.295 1.364s.855 1.363 1.295 1.363m.307 3.323h10.044c.429 0 1.263-.617 1.263-1.364s-.833-1.367-1.263-1.367h-10.044c-.424 0-1.26.62-1.26 1.367s.836 1.364 1.26 1.364m.313 3.319h9.423c.408 0 1.231-.632 1.231-1.361 0-.773-.875-1.361-1.231-1.361h-9.423c-.356 0-1.231.588-1.231 1.361s.875 1.361 1.231 1.361m.307 3.325h8.805c.34 0 1.197-.605 1.197-1.363s-.857-1.365-1.197-1.365h-8.805c-.333 0-1.196.604-1.196 1.365s.863 1.363 1.196 1.363m.31 3.322h8.188c.325 0 1.164-.604 1.164-1.364s-.839-1.364-1.164-1.364h-8.188c-.328 0-1.164.604-1.164 1.364s.836 1.364 1.164 1.364" class="C"/><path d="M112.012 76.587h28.309v-.551h-28.309z" class="B"/><path d="M126.202 65.751c-7.096 0-12.996 4.208-13.549 9.513l2.919-2.651 3.545 3.215 3.543-3.215 3.543 3.215 3.544-3.215 3.541 3.215 3.548-3.215 2.919 2.651c-.549-5.305-6.448-9.513-13.552-9.513m-10.66 7.798l2.829 2.564h-5.216-.004a3.54 3.54 0 0 0-.464.029zm7.083 0l2.825 2.564H119.8zm7.092 0l2.821 2.564h-5.652zm7.086 0l2.856 2.593a3.69 3.69 0 0 0-.469-.029h-.004-5.216z" class="C"/><path d="M77.032 56.683l-.552.236c-6.764 2.905-8.88 11.077-9.509 14.916l-2.42-6.741-.508.589c-1.157 1.347-6.788 8.508-6.673 20.172l-5.236-7.183-.365.483c-.057.075-5.347 7.229-1.452 20.427-5.425-4.531-5.521-4.531-5.721-4.531l-.335.004-.093.311c-2.023 6.755.332 14.961 1.307 17.865l-5.889-3.552.045.833c.025.411.617 9.655 4.449 14.632l-4.835-1.373.089.663c.008.081 1.091 7.624 6.18 11.593l-4.257-.909.103.632c.013.083 1.351 7.959 7.297 11.395l-4.723-.551.181.628c.011.032.979 3.323 2.491 5.387 1.316 1.804 3.527 4.253 7.904 5.669l-4.299.296.357.603c.02.04 2.299 3.883 4.125 5.716 3.265 3.284 7.707 4.883 13.573 4.883l.843-.009.075-.003 12.332-6.92.324-1.203-.176-.177c-.12-.119-.215-.228-.291-.328-.108-.172-.781-1.833-1.108-2.635l-.02-.053-.547-1.317c-.796-1.444-2.025-4.26-3.649-8.365l-.175-.445c-.561-1.239-1.352-2.1-2.123-2.933-.808-.877-1.573-1.705-1.847-2.856l-.041-.175-.101-.428c-.463-2.123-.723-4.269-.768-6.389l-.009-.596c-.001-2.057.203-4.124.609-6.145.036-.183.076-.363.123-.573.48-2.172 1.203-4.325 2.148-6.405l.249-.537a36.24 36.24 0 0 1 3.229-5.453l.356-.487a37.75 37.75 0 0 1 2.391-2.921l.441-.48c1.029-1.096 1.895-1.895 2.443-2.363.209-.188.376-.323.507-.429l.185-.152z" class="B"/><g class="C"><path d="M77.17 162.725l-18.429 7.759s9.573 8.58 21.708 3.867c4.637-1.803 11.892-10.553 5.137-16.468-2.357-2.064-7.689-1.464-8.808 2.061-.825 2.607 2.357 6.977 6.507 4.024m9.791-16.509l-.436 1.075c-4.78-2.611-8.045-9.723-8.045-9.723l-3.173-29.475c-2.031.384-7.543 2.088-7.928 9.267l-.003.021v.201c-3.844 1.967-3.884 8.28-3.655 9.64-3.908 4.983-.744 11.089-.16 12.011-1.409 5.577 1.489 7.625 2.275 8.059-.139 2.676.483 4.221 1.624 5.365 1.183 1.189 2.749 1.199 3.577 1.1a4.14 4.14 0 0 0 .689-.135l.149-.043.045-.156c.983-3.389 4.829-6.367 7.277-7.623.145.163.632.716.8.876 0 0 3.847 3.707 9.004 1.465z"/><path d="M80.766 162.339l-.367-1.511-2.308-3.239-26.096 1.831c.463.921 2.24 3.448 3.812 5.027 1.936 1.941 5.532 4.255 11.679 4.255a24.83 24.83 0 0 0 1.62-.052zm-22.365-4.181l19.699-1.517c-1.013-1.859-1.325-2.953-1.601-3.92-.181-.641-.356-1.248-.708-2.017l-30.423-2.924a13.3 13.3 0 0 0 2.108 4.328c2.385 3.265 6.063 5.3 10.925 6.051M48.27 136.603l.385.195 22.475 5.027a33.93 33.93 0 0 1-.729-6.173l-23.963-8.744-5.857-1.685c.447 2.237 2.167 8.595 7.689 11.381m3.875 10.935l21.608 2.251a40.32 40.32 0 0 1-2.405-7.04l-25.716-5.752.009-.024-3.099-.569c.465 1.919 2.641 9.075 9.603 11.135m24.202-89.189c-6.123 2.292-8.32 13.381-8.716 15.699l12.633 37.315a35.45 35.45 0 0 1 2.252-2.173zm-5.957 76.38a31.81 31.81 0 0 1 .596-5.945l-25.2-14.115-4.984-3.072c.099 2.115 1.155 10.285 5.248 14.255zm-23.404-20.379l24.187 13.555c.483-2.111 1.192-4.203 2.105-6.231l-22.181-20.129-6.113-5.123c-.535 1.789-1.608 7.525 2.003 17.928m4.794-13.356l21.876 19.859a36.81 36.81 0 0 1 3.137-5.277L56.893 87.061l.055-.036-4.815-6.731c-1.185 2.16-4.103 9.179-.352 20.701"/><path d="M64.203 67.405c-1.708 2.059-6.361 8.788-5.783 20.291v.032l18.92 27.104a39.89 39.89 0 0 1 2.245-2.737L66.767 74.231zm28.149 80.365l1.117-2.56c-1.711-1.797-3.223-3.897-3.967-6.201L77.606 66.685l7.489 71.424c.011.028.845 3.052 3.604 6.291.912 1.076 2.113 2.253 3.652 3.371"/></g><path d="M85.449 140.715a22.22 22.22 0 0 0 2.737 4.065c1.105 1.309 2.403 2.497 3.848 3.539l-.613 1.408c-3.023-.121-5.091-2.053-5.111-2.075-.1-.092-.349-.371-.476-.512-1.287-2.032-.999-4.964-.385-6.425m-.276-2.612l-7.228-68.889 11.488 69.816c.661 2.045 1.988 4.128 3.947 6.196l-1.056 2.431a20.95 20.95 0 0 1-3.569-3.301c-2.729-3.208-3.576-6.235-3.581-6.252m-6.977 4.632c.044-.107.203-.445.424-.473 1.123.764 2.513 1.168 4.024 1.168.505 0 1.019-.048 1.529-.137-.072 1.324.145 2.557.644 3.573-.615.335-2.067 1.192-3.599 2.561a.4.4 0 0 0-.164-.089c-1.028-.245-1.923-1.005-2.516-2.14-.747-1.416-.881-3.169-.343-4.463m-8.363-1.556c1.033 1.001 2.993 1.573 5.412 1.573.697 0 1.439-.047 2.208-.135-.484 1.323-.408 2.964.212 4.423-.796.595-1.817 1.011-2.961 1.212-.361.061-.833.133-1.305.133-.615 0-1.143-.121-1.619-.368-.015-.009-.025-.013-.036-.013-.877-.627-2.775-2.525-1.911-6.825m9.315-11.247l.017.099c.031.183.041.308-.063.356-1.831.828-3.087 2.325-3.292 3.916-3.013-.321-5.331-2.673-5.657-5.751l.011-.011-.015-.081-.033-.535c-.001-.057-.012-.111-.039-.163-.113-2.096.372-6.465 2.985-8.305.124 3.853 2.609 7.013 6.092 7.739-.115.861-.117 1.857-.007 2.736m-1.011-19.04c1.363-.801 2.669-1.133 3.247-1.249l1.235 11.684c-.009.003-.025.007-.037.016-1.815 1.171-2.647 3.2-3.219 5.047-3.252-.705-5.584-3.792-5.571-7.369l.007-.407c.187-3.537 1.647-6.137 4.339-7.721m6.105 31.615c-.548.119-1.104.175-1.652.175-2.677 0-4.712-1.336-5.587-3.665-1.093-2.92-.829-6.492 2.245-7.892.057-.027.101-.047.133-.047.621 2.389 2.336 4.82 4.788 4.943l.296 2.78.072-.005-.017.02c.031.032.125.236.233.473l.223.481-.003.005c-.364.909-.609 1.829-.732 2.732m-3.331-9.468c-.545-1.012-.94-2.401-1.123-3.911-.176-1.479.927-5.852 2.928-6.86l1.373 12.984c-1.289-.109-2.501-.953-3.179-2.213m-4.776 5.667c.331 1.204.929 2.212 1.783 3.003-.837.169-1.703.256-2.58.256-2.471 0-4.656-.695-5.316-1.689-.044-.067-.104-.115-.177-.137a13.75 13.75 0 0 1-1.428-4c-.475-2.54-.092-4.809 1.133-6.743.592 3.049 3.101 5.356 6.185 5.661-.069 1.145.073 2.437.4 3.649m.319 15.967c-.755 0-1.832-.18-2.676-1.033-1.105-1.104-1.577-2.551-1.533-4.677a5.68 5.68 0 0 0 1.117.101 8.17 8.17 0 0 0 1.385-.12c.487-.088 2.125-.429 3.253-1.22.639 1.115 1.563 1.916 2.62 2.265-1.529 1.497-2.529 3.019-2.979 4.537a4.06 4.06 0 0 1-.589.109 4.96 4.96 0 0 1-.599.037m41.456 16.309l-.108-.096c-2.196-1.919-3.54-5.083-3.993-9.408-.205-1.919-.115-3.873-.031-5.179l.036-.568.065-.191-.052-.013.009-.145-.121.115-.204-.055c-8.209-2.195-13.629-5.595-16.733-8.063-.832-.676-1.605-1.36-2.288-2.033-.273-.279-.404-.428-.404-.431l-.373-.445-.023.051c-1.765-1.901-2.963-3.804-3.56-5.652L76.663 57.589l-.013-.071-.708.092 5.395 51.361c-1.925.375-7.857 2.125-8.26 9.596v.032c-3.771 2.124-3.857 8.177-3.669 9.751-3.904 5.128-.629 11.345-.171 12.157-1.229 5.068 1.052 7.329 2.107 8.075.037.057.08.097.139.128.012.007.028.013.044.019-.092 2.436.447 4.103 1.733 5.396 1.023 1.029 2.301 1.244 3.195 1.244.225 0 .459-.015.687-.041a4.98 4.98 0 0 0 .728-.139l.359-.109.097-.337c.965-3.323 4.719-6.113 6.835-7.268.059.096.123.195.195.291.055.071.127.12.221.144a8.72 8.72 0 0 0 .229.24c.093.092 2.352 2.233 5.789 2.287.365.8 1.759 3.347 5.3 5.368-2.433 4.276-2.488 8.993-.167 13.647 1.821 3.657 4.479 6.089 4.993 6.54l.099.089h16.391z" class="B"/><path d="M112.99 155.974c-.405.54-1.744 1.735-5.609 1.735-1.216 0-2.593-.119-4.1-.353-7.071-1.103-10.403-5.297-11.228-7.452l1.847-4.232c1.371 1.427 7.396 7.096 19.091 10.303" fill="#f9b10c"/><path d="M97.305 169.161c-2.227-4.465-2.208-8.805.057-12.904 1.675.765 3.611 1.348 5.765 1.731 1.643.292 3.156.443 4.485.443 2.753 0 4.459-.753 5.483-1.524-.068 1.277-.101 2.953.072 4.617.464 4.432 1.849 7.705 4.112 9.733l.248 4.181H102.07c-.651-.583-3.077-2.891-4.765-6.277" class="C"/><path d="M80.319 157.247c-1.615.433-2.785 1.452-3.211 2.795-.24.737-.109 1.625.277 2.428a.33.33 0 0 1 .097.123.34.34 0 0 1 .029.113 4.05 4.05 0 0 0 1.195 1.333c1.276.88 2.829.763 4.376-.339a.35.35 0 0 1 .48.071c.112.15.076.355-.076.465-1.777 1.263-3.66 1.387-5.172.343-.54-.371-.989-.864-1.327-1.419l-17.608 7.417c1.939 1.519 10.528 7.508 20.939 3.464 3.052-1.184 6.809-5.133 7.541-9.121.487-2.628-.36-4.913-2.503-6.795-.817-.712-2.049-1.099-3.349-1.099a6.48 6.48 0 0 0-1.689.22M58.507 170.73l-.384-.347 18.557-7.817c-.389-.896-.496-1.877-.231-2.719.5-1.565 1.841-2.745 3.691-3.241 2.061-.552 4.34-.139 5.673 1.029 2.3 2.012 3.24 4.571 2.721 7.4-.773 4.205-4.739 8.371-7.963 9.621a20.54 20.54 0 0 1-7.493 1.424c-8.471 0-14.497-5.283-14.572-5.351M176.317 56.683l.552.236c6.764 2.905 8.883 11.077 9.511 14.916l2.419-6.741.507.589c1.159 1.347 6.792 8.508 6.679 20.172l5.233-7.183.368.483c.055.075 5.345 7.229 1.451 20.427 5.427-4.531 5.52-4.531 5.72-4.531l.337.004.092.311c2.023 6.755-.332 14.961-1.308 17.865l5.893-3.552-.049.833c-.025.411-.617 9.655-4.449 14.632l4.835-1.373-.088.663c-.009.081-1.089 7.624-6.177 11.593l4.252-.909-.101.632c-.012.083-1.355 7.959-7.297 11.395l4.724-.551-.184.628c-.009.032-.977 3.323-2.489 5.387-1.315 1.804-3.525 4.253-7.904 5.669l4.299.296-.353.603c-.024.04-2.304 3.883-4.129 5.716-3.265 3.284-7.704 4.883-13.575 4.883-.276 0-.555-.004-.839-.009l-.077-.003-12.328-6.92-.328-1.203.177-.177a3.7 3.7 0 0 0 .293-.328c.104-.172.781-1.833 1.104-2.635l.021-.053.545-1.317c.799-1.444 2.025-4.26 3.648-8.365l.179-.445c.557-1.239 1.353-2.1 2.123-2.933.807-.877 1.571-1.705 1.847-2.856l.039-.175a10.5 10.5 0 0 0 .1-.428 33 33 0 0 0 .768-6.389l.012-.596c.003-2.057-.204-4.124-.611-6.145l-.121-.573a32.26 32.26 0 0 0-2.149-6.405l-.247-.537a36.8 36.8 0 0 0-3.228-5.453l-.36-.487c-.745-1.013-1.552-1.996-2.391-2.921l-.44-.48c-1.031-1.096-1.896-1.895-2.445-2.363-.208-.188-.375-.323-.504-.429l-.189-.152z" class="B"/><g class="C"><path d="M176.179 162.725l18.433 7.759s-9.573 8.58-21.709 3.867c-4.639-1.803-11.893-10.553-5.139-16.468 2.357-2.064 7.688-1.464 8.808 2.061.828 2.607-2.357 6.977-6.508 4.024m-9.792-16.509l.436 1.075c4.78-2.611 8.045-9.723 8.045-9.723l3.173-29.475c2.033.384 7.545 2.088 7.929 9.267.004.011.001.017.001.021a5.67 5.67 0 0 1 .003.201c3.845 1.967 3.883 8.28 3.653 9.64 3.908 4.983.744 11.089.163 12.011 1.405 5.577-1.492 7.625-2.276 8.059.137 2.676-.483 4.221-1.623 5.365-1.187 1.189-2.753 1.199-3.581 1.1-.408-.049-.677-.132-.689-.135l-.149-.043-.044-.156c-.981-3.389-4.831-6.367-7.275-7.623-.149.163-.631.716-.799.876 0 0-3.851 3.707-9.009 1.465z"/><path d="M172.58 162.339l.375-1.511 2.305-3.239 26.096 1.831c-.461.921-2.241 3.448-3.812 5.027-1.935 1.941-5.531 4.255-11.677 4.255a24.85 24.85 0 0 1-1.623-.052zm22.372-4.181l-19.7-1.517c1.011-1.859 1.325-2.953 1.599-3.92.183-.641.356-1.248.708-2.017l30.421-2.924c-.217.819-.791 2.535-2.107 4.328-2.385 3.265-6.061 5.3-10.921 6.051m10.13-21.556l-.387.195-22.475 5.027c.433-2.053.681-4.128.728-6.173l23.964-8.744 5.856-1.685c-.443 2.237-2.164 8.595-7.687 11.381m-3.874 10.935L179.6 149.79c1.039-2.335 1.847-4.704 2.404-7.04l25.716-5.752-.009-.024 3.096-.569c-.464 1.919-2.64 9.075-9.6 11.135m-24.206-89.189c6.125 2.292 8.323 13.381 8.716 15.699l-12.631 37.315c-.932-.981-1.724-1.711-2.252-2.173zm5.96 76.38c-.012-1.992-.211-3.988-.6-5.945l25.203-14.115 4.983-3.072c-.097 2.115-1.153 10.285-5.244 14.255zm23.404-20.379l-24.189 13.555a32.97 32.97 0 0 0-2.103-6.231l22.181-20.129 6.112-5.123c.533 1.789 1.608 7.525-2.001 17.928m-4.795-13.356l-21.879 19.859a36.8 36.8 0 0 0-3.136-5.277l19.904-28.516-.057-.036 4.813-6.731c1.185 2.16 4.104 9.179.355 20.701"/><path d="M189.151 67.405c1.703 2.059 6.357 8.788 5.779 20.291v.032l-18.917 27.104a39.16 39.16 0 0 0-2.248-2.737l12.817-37.864zm-28.155 80.365l-1.116-2.56c1.712-1.797 3.223-3.897 3.968-6.201l11.899-72.324-7.493 71.424c-.011.028-.843 3.052-3.6 6.291-.915 1.076-2.115 2.253-3.657 3.371"/></g><path d="M167.514 147.14l-.473.512c-.021.021-2.088 1.955-5.112 2.075l-.612-1.408c1.447-1.04 2.741-2.229 3.848-3.539 1.048-1.235 1.968-2.601 2.737-4.065.612 1.461.901 4.395-.388 6.425m-2.921-2.784a20.92 20.92 0 0 1-3.565 3.3l-1.057-2.431c1.957-2.068 3.289-4.151 3.951-6.196l11.484-69.816-7.224 68.889c-.011.017-.855 3.044-3.588 6.253m10.221 2.841c-.595 1.136-1.491 1.895-2.519 2.14-.061.019-.117.047-.163.089-1.533-1.369-2.983-2.227-3.597-2.561.492-1.016.716-2.249.644-3.573.504.091 1.02.137 1.529.137 1.511 0 2.901-.404 4.024-1.168.219.028.376.367.421.473.54 1.295.404 3.047-.34 4.463m6.791.807c-.007 0-.019.004-.036.013-.473.247-1.004.369-1.616.369-.473 0-.947-.073-1.303-.135-1.147-.201-2.169-.617-2.964-1.212.62-1.459.695-3.099.209-4.423.769.088 1.512.135 2.208.135 2.424 0 4.383-.572 5.413-1.573.864 4.3-1.031 6.199-1.912 6.825m-7.408-20.808c3.484-.725 5.968-3.885 6.091-7.739 2.617 1.84 3.099 6.209 2.987 8.305-.025.052-.037.105-.037.163l-.032.535-.019.081.011.012c-.327 3.076-2.644 5.428-5.659 5.749-.204-1.591-1.461-3.088-3.289-3.916-.104-.048-.095-.173-.064-.356l.017-.099a10.92 10.92 0 0 0-.005-2.736m5.356-8.583l.004.407c.019 3.577-2.317 6.664-5.571 7.369-.568-1.847-1.399-3.876-3.217-5.047-.012-.008-.028-.013-.035-.015l1.236-11.685c.572.116 1.884.448 3.241 1.249 2.693 1.584 4.153 4.184 4.341 7.721m-11.177 21.161l-.001-.005.221-.481.235-.473-.019-.02.075.007.293-2.78c2.455-.124 4.165-2.555 4.788-4.943a.37.37 0 0 1 .133.045c3.073 1.401 3.337 4.972 2.245 7.892-.871 2.329-2.907 3.665-5.587 3.665-.545 0-1.103-.056-1.653-.175a11.45 11.45 0 0 0-.731-2.732m.884-4.523l1.372-12.984c2.005 1.009 3.104 5.381 2.929 6.86-.18 1.509-.577 2.9-1.12 3.911-.679 1.26-1.893 2.104-3.181 2.213m8.356-.196c3.083-.305 5.593-2.612 6.185-5.661 1.224 1.935 1.607 4.203 1.132 6.743a13.8 13.8 0 0 1-1.427 4c-.075.024-.135.071-.18.139-.66.993-2.844 1.688-5.312 1.688-.876 0-1.745-.087-2.584-.256.855-.791 1.453-1.799 1.784-3.003.327-1.211.472-2.504.401-3.649m-1.317 19.58a4.51 4.51 0 0 1-.591-.109c-.448-1.52-1.449-3.041-2.976-4.539 1.053-.349 1.977-1.151 2.619-2.265 1.128.791 2.767 1.132 3.252 1.221.201.035.739.119 1.388.119a5.66 5.66 0 0 0 1.115-.101c.045 2.127-.429 3.573-1.529 4.679-.848.853-1.925 1.032-2.681 1.032a5.22 5.22 0 0 1-.596-.036m-41.153 21.444h16.385l.101-.089c.512-.451 3.171-2.881 4.991-6.54 2.321-4.653 2.263-9.369-.168-13.645 3.545-2.023 4.935-4.569 5.305-5.369 3.433-.053 5.691-2.195 5.785-2.287.055-.051.139-.137.228-.24a.39.39 0 0 0 .223-.144c.072-.096.133-.195.196-.291 2.115 1.155 5.869 3.945 6.833 7.268l.097.337.36.109a4.9 4.9 0 0 0 .729.14c.229.025.457.04.683.04.893 0 2.172-.215 3.199-1.244 1.283-1.292 1.823-2.959 1.731-5.396.015-.005.032-.012.044-.019.059-.031.103-.071.139-.127 1.055-.747 3.336-3.008 2.107-8.076.459-.812 3.733-7.029-.169-12.157.187-1.572.101-7.627-3.672-9.751v-.032c-.401-7.471-6.331-9.221-8.255-9.595l5.391-51.363-.708-.092-.012.071-13.469 81.279c-.595 1.848-1.792 3.751-3.556 5.652l-.021-.049-.376.444c-.001.003-.128.152-.401.431-.687.673-1.461 1.357-2.292 2.033-3.101 2.468-8.527 5.868-16.735 8.064l-.2.053-.123-.115.008.145-.049.013.067.191.032.568c.087 1.305.175 3.26-.029 5.179-.455 4.327-1.799 7.489-3.992 9.409l-.109.095z" class="B"/><path d="M140.361 155.974c.408.54 1.743 1.735 5.607 1.735 1.217 0 2.593-.119 4.104-.353 7.068-1.103 10.404-5.297 11.225-7.452l-1.845-4.232c-1.372 1.427-7.396 7.096-19.091 10.303" fill="#f9b10c"/><path d="M156.044 169.161c2.228-4.465 2.209-8.805-.059-12.904-1.675.765-3.609 1.348-5.763 1.731-1.644.292-3.153.443-4.487.443-2.753 0-4.457-.753-5.483-1.524.068 1.277.104 2.953-.071 4.617-.464 4.432-1.851 7.705-4.113 9.733l-.248 4.181h15.457c.649-.583 3.079-2.891 4.765-6.277" class="C"/><path d="M171.34 157.027c-1.3 0-2.531.387-3.344 1.099-2.148 1.881-2.989 4.167-2.508 6.795.735 3.988 4.492 7.937 7.543 9.121 10.409 4.044 19.001-1.945 20.941-3.464l-17.611-7.417c-.339.555-.787 1.048-1.324 1.419-1.512 1.044-3.397.92-5.173-.343-.155-.111-.188-.317-.079-.465.117-.149.328-.177.48-.071 1.548 1.101 3.101 1.219 4.377.339.491-.341.9-.812 1.199-1.333.001-.037.012-.079.025-.113.024-.049.055-.092.096-.123.391-.803.517-1.691.283-2.428-.427-1.343-1.599-2.361-3.215-2.795a6.49 6.49 0 0 0-1.691-.22m8.929 19.056c-2.339 0-4.856-.401-7.496-1.425-3.22-1.251-7.185-5.416-7.96-9.621-.52-2.829.421-5.388 2.721-7.4 1.333-1.168 3.613-1.581 5.675-1.029 1.852.496 3.192 1.676 3.689 3.241.264.841.161 1.823-.231 2.719l18.56 7.817-.385.347c-.076.068-6.103 5.352-14.573 5.352m2.569 8.244c-1.424-2.892-5.045-5.043-5.543-5.043l-.349.007-.341.579.163.289c1.213 2.145 1.068 3.217.873 3.661a1.19 1.19 0 0 1-.535.589l-.861-.28-5.207-1.528-8.645-1.867-7.895-1.268a2.84 2.84 0 0 0 .571-1.233c.148-.768-.023-1.545-.476-2.188s-1.137-1.08-1.929-1.224c-8.175-1.484-16.937-2.236-26.044-2.236-15.3 0-26.504 2.156-26.975 2.247-1.624.321-2.677 1.865-2.353 3.443.091.436.283.84.559 1.191a187.87 187.87 0 0 0-9.265 1.52 86.51 86.51 0 0 0-4.48.931c-1.583.359-3.493 1.013-5.191 1.589-1.412.481-2.869.975-3.447 1.023l-.084-.032c-.021-.008-.456-.141-.677-.641-.199-.444-.347-1.519.872-3.679l.161-.303-.356-.565h-.341c-.509 0-4.203 2.199-5.591 5.156-.972 2.065-.643 4.028.977 5.841a8.8 8.8 0 0 0 1.048.995c6.273 5.099 3.528 8.555 3.405 8.7l-.124.151-.007.192c-.009.143-.036 1.431.931 2.412.672.683 1.631 1.027 2.851 1.027 1.148 0 2.547-.315 4.16-.931l2.423-.936c4.369-1.692 6.004-2.328 10.247-2.861 11.392-1.315 24.184-1.511 30.796-1.511 5.677 0 20.185.165 32.288 1.692 3.215.497 4.963 1.176 8.788 2.66l.268.103 2.153.831c3.321 1.272 5.707 1.224 7.005-.095.997-1.015.935-2.364.932-2.416l-.007-.191-.123-.145c-.027-.031-2.437-3.224 3.437-8.733l1.224-1.203c1.467-1.772 1.708-3.693.713-5.719" class="B"/><path d="M181.425 189.495c1.043-1.249 1.351-2.596.917-4.004-.681-2.223-3.096-4.12-4.361-4.929.716 1.508.875 2.721.477 3.617-.4.905-1.224 1.123-1.259 1.132l-.085.021-.089-.029-1.073-.351-5.148-1.509-8.569-1.849c-11.475-2.101-25.295-3.403-36.076-3.403-11.159 0-25.843 1.435-37.411 3.653-1.407.251-2.896.559-4.436.923-1.544.349-3.432.992-5.1 1.561-1.772.601-3.175 1.079-3.773 1.079-.067 0-.236 0-.371-.099a2.04 2.04 0 0 1-1.184-1.104c-.396-.901-.236-2.112.479-3.62-1.285.819-3.74 2.757-4.388 5.016-.417 1.44-.044 2.823 1.103 4.104a7.88 7.88 0 0 0 .976.931c6.407 5.208 4.045 9.183 3.595 9.829.004.256.081 1.083.688 1.697 1.024 1.032 3.116.996 6.025-.117l2.42-.935c4.444-1.725 6.109-2.369 10.473-2.919 11.439-1.319 24.271-1.515 30.904-1.515 5.692 0 20.249.164 32.42 1.699 3.325.516 5.097 1.204 8.988 2.713l2.417.932c1.503.579 2.791.867 3.828.867h.001c.965 0 1.705-.253 2.199-.755.608-.613.676-1.435.685-1.691-.429-.604-2.475-4.141 3.581-9.817.269-.257 1.068-1.032 1.147-1.129" class="D"/><path d="M81.547 188.977l.775 3.415-2.931-2.956-1.261.268 1.285 5.669 1.253-.265-.756-3.333 2.835 2.841.039.039 1.299-.275-1.28-5.668zm6.313 2.259l-1.264.223.316-1.784zm-.576-3.345l-1.349.24-1.219 6.116 1.433-.252.233-1.339 2.135-.379.731 1.165 1.46-.259-3.387-5.237zm6.216 1.647l.176 1.128 1.319-.189.088.557c-.144.136-.316.26-.516.373a2 2 0 0 1-.672.232c-.455.067-.853-.035-1.181-.297-.329-.269-.548-.725-.643-1.356-.091-.583-.017-1.045.215-1.376s.588-.529 1.064-.597c.305-.047.58-.009.803.104a1.1 1.1 0 0 1 .509.532l.039.083 1.297-.44-.036-.093c-.2-.512-.537-.893-1.003-1.136-.457-.239-1.059-.308-1.788-.203-.559.081-1.016.248-1.368.491-.459.323-.787.739-.972 1.24s-.235 1.055-.14 1.643a3.5 3.5 0 0 0 .577 1.471c.304.435.712.749 1.209.932.335.125.7.188 1.087.188a4.26 4.26 0 0 0 .584-.043 4.07 4.07 0 0 0 1.387-.473c.438-.244.775-.508.987-.779l.025-.032-.36-2.348zm7.002-.108l-1.279.145.421-1.76zm-.369-3.371l-1.36.16-1.599 6.027 1.443-.167.316-1.32 2.157-.247.651 1.203 1.479-.175-3.055-5.424zm6.779 1.443a.57.57 0 0 1-.257.227c-.088.033-.327.092-1.007.152l-.756.067-.119-1.221.805-.073.811-.056h.021c.168.011.3.067.396.156s.153.212.167.381c.017.144-.007.268-.061.368m5.852.859l-1.284.08.521-1.735zm-1.545-3.296l-1.928 5.916-.904-1.148c-.323-.419-.573-.7-.759-.86-.131-.113-.284-.221-.457-.317.392-.125.692-.323.893-.583.241-.316.345-.697.301-1.143a1.68 1.68 0 0 0-.353-.904 1.44 1.44 0 0 0-.772-.512c-.305-.077-.768-.089-1.391-.033l-2.544.229.549 5.776 1.361-.12-.221-2.331.135-.012c.251-.021.439-.021.556.007.108.027.221.089.329.18.113.097.341.352.677.756l.987 1.177 1.624-.144 1.431-.088.393-1.303 2.164-.136.588 1.239 1.481-.092-2.776-5.643zm8.345 4.257l-.101-3.519.423-.009c.464-.012.783-.004.939.025a1.02 1.02 0 0 1 .497.225c.132.116.24.283.321.492.08.221.127.547.137.967s-.015.76-.083 1.005c-.068.231-.155.4-.264.503s-.249.173-.419.223c-.139.035-.368.06-.68.065zm2.789-4.085c-.259-.251-.569-.427-.928-.519-.263-.068-.648-.091-1.131-.081l-2.231.059.164 5.707.003.099 2.292-.063c.448-.012.792-.061 1.06-.152.353-.121.639-.285.843-.495a2.49 2.49 0 0 0 .615-1.047c.112-.345.164-.761.149-1.228-.015-.535-.095-.992-.235-1.352-.14-.368-.343-.677-.601-.928m4.995 2.697l-1.285.003.632-1.701zm-1.325-3.387l-2.324 5.803h1.455l.476-1.276h2.168l.504 1.276h1.488l-2.397-5.805zm7.963 3.605l-2.079-3.507-.028-.047-1.295-.036-.161 5.804 1.281.031.097-3.409 2.075 3.467 1.325.039.165-5.804-1.285-.035zm5.666.143l-1.287-.068.737-1.664zm.243-3.384l-1.365-.071-2.66 5.671 1.453.077.548-1.247 2.165.117.428 1.295 1.487.085-2.036-5.863zm14.268 4.698l-1.28-.156.853-1.604zm-7.536-3.06l.805.075.828.095a.61.61 0 0 1 .36.219.57.57 0 0 1 .091.405.63.63 0 0 1-.133.356.53.53 0 0 1-.297.173c-.032.008-.101.015-.237.015a9.17 9.17 0 0 1-.779-.045l-.757-.072zm8.017-.297l-1.36-.164-3.04 5.451-.664-1.285c-.24-.468-.428-.788-.583-.984a2.38 2.38 0 0 0-.389-.388c.412-.057.745-.193.992-.416.299-.265.472-.62.516-1.064a1.7 1.7 0 0 0-.175-.957c-.156-.291-.373-.505-.66-.64s-.727-.224-1.361-.284l-2.541-.239-.563 5.683-.008.097 1.36.124.231-2.327.136.008c.255.027.435.064.545.109.101.047.2.128.285.236.096.119.269.409.524.865l.744 1.337 1.624.152 1.417.172.633-1.207 2.153.264.335 1.324 1.473.184-1.609-5.988zm8.568 1.236l-1.828-.28-2.557 1.973.372-2.305-1.352-.207-.929 5.733 1.355.204.279-1.728.947-.685 1.116 2.773 1.735.264-1.764-3.82zm3.763 4.373c-.168.367-.372.62-.607.756s-.489.18-.771.124a1.16 1.16 0 0 1-.849-.579c-.189-.321-.215-.823-.084-1.493.12-.631.335-1.064.629-1.292.301-.229.643-.305 1.033-.235.276.053.503.175.668.359s.251.42.263.696l.004.099 1.393-.064-.011-.103c-.047-.479-.181-.875-.403-1.172-.368-.495-.917-.813-1.633-.945-.819-.151-1.545-.011-2.155.423-.604.432-1.005 1.125-1.184 2.061-.175.891-.06 1.649.339 2.256a2.47 2.47 0 0 0 .569.601l-.245.319a2.23 2.23 0 0 1 .507.097c.16.057.271.132.328.213.049.093.065.176.028.253-.028.096-.099.145-.196.183-.148.035-.319.019-.531-.056a9.17 9.17 0 0 1-.689-.287l-.155.419c.155.101.384.199.696.313.443.155.817.18 1.123.095a.67.67 0 0 0 .46-.42c.068-.193.048-.377-.069-.571 0-.007-.008-.015-.013-.023.199.036.392.057.577.057.381 0 .729-.076 1.043-.225.471-.228.861-.643 1.16-1.227l.041-.087-1.228-.643zm5.398.879l-1.256-.273 1.005-1.523zm.819-3.233l-.011-.067-1.336-.287-3.497 5.051-.08.119 1.424.307.749-1.141 2.113.459.208 1.352 1.451.313z" class="B"/><path d="M152.499 175.641c-8.123-1.473-16.828-2.225-25.88-2.225-15.268 0-26.328 2.141-26.793 2.233-1.14.221-1.885 1.308-1.656 2.419.228 1.088 1.583 1.508 2.708 1.281.463-.085 11.02-1.812 25.773-1.812 8.787 0 25.267 1.959 25.397 1.959 1.02-.004 1.956-.493 2.141-1.457a2 2 0 0 0-.335-1.539c-.318-.451-.804-.759-1.356-.859M98.752 86.26c-.216-2.036-.241-3.695.843-5.536 1.132-1.921 4.553-3.497 4.557-6 .141 2.864 1.536 5.832-.444 8.407-.708.917-1.688 1.805-2.745 2.257l-2.211.872" class="C"/><path d="M104.039 76.223c-.497.971-1.419 1.8-2.317 2.608-.763.687-1.487 1.336-1.892 2.024-1.012 1.719-1.011 3.309-.845 5.031l1.869-.741c.913-.385 1.879-1.179 2.639-2.172 1.373-1.785 1.041-3.761.696-5.855l-.149-.895m-5.287 10.301a.28.28 0 0 1-.144-.039c-.072-.041-.12-.116-.127-.197-.207-1.951-.28-3.724.879-5.695.447-.759 1.199-1.435 1.995-2.148 1.239-1.117 2.525-2.273 2.525-3.723 0-.144.119-.259.264-.264s.275.109.28.252c.036.764.171 1.559.297 2.323.349 2.107.712 4.287-.793 6.252-.819 1.065-1.859 1.919-2.859 2.343l-2.221.875c-.031.015-.065.021-.096.021" class="B"/><path d="M97.696 76.23c-.215-2.039-.241-3.693.843-5.537 1.135-1.921 4.555-3.496 4.56-5.999.143 2.863 1.537 5.828-.443 8.407-.709.917-1.689 1.807-2.749 2.255l-2.211.875" class="C"/><path d="M102.986 66.194c-.501.971-1.42 1.797-2.317 2.607-.767.688-1.489 1.337-1.896 2.025-1.009 1.72-1.007 3.309-.843 5.031l1.871-.741c.911-.387 1.872-1.177 2.635-2.173 1.373-1.784 1.045-3.764.696-5.852l-.145-.896m-5.291 10.297c-.049 0-.096-.011-.141-.036a.25.25 0 0 1-.127-.199c-.205-1.949-.283-3.724.879-5.693.447-.757 1.196-1.435 1.992-2.151 1.243-1.116 2.527-2.272 2.528-3.719 0-.144.119-.26.265-.264.139-.004.271.109.276.251.04.765.171 1.557.3 2.323.351 2.108.715 4.291-.796 6.253-.819 1.065-1.857 1.919-2.857 2.343l-2.217.875c-.033.012-.067.017-.101.017" class="B"/><path d="M99.328 96.994c-.211-2.037-.235-3.695.847-5.537 1.132-1.923 4.555-3.496 4.559-5.999.141 2.863 1.536 5.829-.444 8.404-.704.92-1.688 1.811-2.745 2.259l-2.216.873" class="C"/><path d="M104.624 86.955c-.501.973-1.424 1.799-2.321 2.609-.765.688-1.488 1.335-1.892 2.023-1.013 1.721-1.009 3.309-.847 5.032l1.871-.739c.912-.388 1.873-1.183 2.637-2.177 1.373-1.784 1.043-3.76.693-5.852l-.141-.896m-5.296 10.301c-.047 0-.095-.011-.137-.037a.26.26 0 0 1-.131-.2c-.204-1.949-.28-3.721.88-5.693.445-.755 1.197-1.432 1.995-2.148 1.243-1.117 2.525-2.272 2.525-3.721 0-.143.12-.259.267-.261.129 0 .272.107.277.249.036.765.169 1.556.297 2.321.352 2.109.713 4.291-.797 6.253-.817 1.067-1.856 1.92-2.852 2.343l-2.224.876c-.031.013-.064.019-.1.019" class="B"/><path d="M100.543 107.833c-.216-2.036-.241-3.695.844-5.533 1.133-1.924 4.553-3.499 4.556-6.003.145 2.864 1.539 5.832-.44 8.407-.708.921-1.689 1.808-2.749 2.259l-2.211.871" class="C"/><path d="M105.834 97.8c-.501.971-1.42 1.797-2.321 2.605-.763.688-1.485 1.339-1.888 2.027-1.013 1.719-1.011 3.305-.847 5.027l1.871-.737c.909-.388 1.872-1.177 2.635-2.176 1.373-1.781 1.045-3.761.695-5.853l-.144-.892m-5.291 10.297c-.048 0-.096-.012-.14-.035-.073-.045-.121-.12-.131-.201-.203-1.951-.279-3.723.881-5.695.445-.755 1.199-1.432 1.993-2.148 1.244-1.117 2.525-2.272 2.527-3.721 0-.141.119-.257.265-.261a.26.26 0 0 1 .276.251c.04.765.173 1.559.299 2.324.352 2.107.717 4.289-.793 6.252-.82 1.061-1.863 1.915-2.859 2.339l-2.219.879c-.032.011-.069.017-.1.017" class="B"/><path d="M102.608 117.513c-.211-2.036-.239-3.695.847-5.536 1.131-1.924 4.555-3.497 4.559-6 .141 2.864 1.536 5.829-.444 8.405-.708.919-1.688 1.811-2.749 2.259l-2.212.872" class="C"/><path d="M107.9 107.476c-.5.973-1.42 1.8-2.32 2.608-.764.687-1.485 1.336-1.893 2.024-1.009 1.72-1.007 3.309-.844 5.031l1.872-.739c.911-.387 1.875-1.18 2.636-2.175 1.372-1.784 1.044-3.761.695-5.853l-.145-.896m-5.524 10.411l-.036-.345c-.208-1.951-.28-3.725.879-5.695.447-.756 1.199-1.431 1.993-2.151 1.241-1.115 2.529-2.269 2.531-3.719l.54-.011c.039.761.169 1.553.295 2.32.351 2.108.721 4.289-.792 6.255-.819 1.067-1.86 1.919-2.855 2.34l-2.221.875z" class="B"/><path d="M102.89 128.955c-.216-2.037-.241-3.695.843-5.533 1.133-1.923 4.556-3.497 4.557-6 .141 2.86 1.537 5.828-.444 8.403-.705.921-1.685 1.809-2.745 2.257-.532.231-1.801.268-2.036.765z" class="C"/><path d="M108.179 118.921c-.5.971-1.419 1.796-2.32 2.608-.763.687-1.485 1.337-1.888 2.024-.981 1.664-1.011 3.207-.861 4.865.305-.209.767-.307 1.217-.403l.664-.173c.916-.388 1.879-1.181 2.639-2.175 1.373-1.785 1.044-3.76.696-5.855l-.147-.892m-5.289 10.301c-.041 0-.083-.011-.12-.028a.27.27 0 0 1-.151-.211c-.207-1.949-.279-3.721.88-5.692.443-.759 1.199-1.435 1.993-2.152 1.243-1.115 2.525-2.272 2.527-3.719.001-.141.12-.26.264-.261.145-.016.271.107.279.248.036.765.172 1.557.299 2.32.352 2.111.715 4.291-.793 6.256-.82 1.065-1.859 1.919-2.857 2.343-.205.084-.48.144-.771.205-.407.084-1.024.215-1.125.429-.023.043-.063.085-.103.113l-.177.105a.28.28 0 0 1-.144.043" class="B"/><path d="M104.642 140.956c-.215-2.039-.236-3.697.844-5.535 1.132-1.927 4.556-3.5 4.561-6.005.137 2.865 1.536 5.832-.447 8.407-.705.921-1.685 1.809-2.747 2.259l-2.212.875" class="C"/><path d="M109.934 130.919c-.5.971-1.423 1.8-2.316 2.605-.767.691-1.489 1.337-1.893 2.027-1.013 1.719-1.013 3.308-.847 5.029l1.869-.741c.912-.385 1.875-1.179 2.637-2.171 1.372-1.789 1.044-3.765.693-5.857l-.144-.892m-5.292 10.299c-.047 0-.097-.013-.141-.04a.26.26 0 0 1-.127-.197c-.205-1.951-.28-3.721.879-5.691.447-.76 1.199-1.436 1.995-2.151 1.241-1.115 2.525-2.273 2.528-3.723 0-.141.117-.257.265-.261.144-.011.268.105.279.251.036.765.168 1.556.295 2.321.352 2.109.719 4.291-.793 6.255-.819 1.065-1.859 1.92-2.857 2.341l-2.22.876c-.035.011-.064.019-.101.019" class="B"/><path d="M108.468 148.227c-.215-2.035-.24-3.695.843-5.535 1.133-1.923 4.555-3.496 4.559-6.001.141 2.865 1.536 5.832-.441 8.407-.708.919-1.689 1.809-2.749 2.259l-2.211.871" class="C"/><path d="M113.759 138.192c-.5.972-1.424 1.797-2.32 2.605-.765.692-1.489 1.34-1.889 2.025-1.015 1.721-1.015 3.309-.851 5.031l1.871-.741c.912-.384 1.875-1.177 2.637-2.172 1.373-1.784 1.043-3.761.693-5.853l-.141-.895m-5.292 10.3c-.049 0-.099-.015-.141-.039a.26.26 0 0 1-.128-.197c-.207-1.949-.281-3.723.877-5.695.447-.757 1.2-1.432 1.996-2.148 1.243-1.116 2.525-2.273 2.525-3.723a.27.27 0 0 1 .267-.261c.147-.012.268.107.277.249.036.765.169 1.557.299 2.323.348 2.109.713 4.291-.796 6.253-.819 1.068-1.86 1.919-2.856 2.341l-2.221.876c-.033.012-.064.02-.099.02" class="B"/><path d="M92.991 90.021c-.281-2.028-.659-3.645-2.156-5.187-1.564-1.615-5.267-2.368-5.877-4.803.555 2.817-.087 6.017 2.457 8.071.909.733 2.077 1.377 3.213 1.575l2.363.344" class="C"/><path d="M85.429 81.466l.075.901c.167 2.111.323 4.111 2.085 5.533.984.793 2.108 1.347 3.087 1.515l1.999.295c-.255-1.709-.637-3.256-2.035-4.699-.561-.575-1.416-1.043-2.328-1.539-1.068-.581-2.161-1.177-2.883-2.007m7.563 8.82c-.012 0-.028 0-.036-.004l-2.375-.347c-1.069-.187-2.288-.779-3.337-1.629-1.941-1.567-2.115-3.769-2.277-5.9l-.273-2.324c-.025-.14.067-.275.209-.307s.287.057.321.195c.348 1.409 1.877 2.24 3.352 3.045.949.515 1.843 1.001 2.459 1.636 1.603 1.651 1.957 3.395 2.227 5.335a.27.27 0 0 1-.079.223.28.28 0 0 1-.191.077" class="B"/><path d="M91.758 80.728c.695-1.937 1.108-3.545.487-5.577-.643-2.124-3.603-4.421-3.012-6.859-.816 2.756-2.876 5.331-1.559 8.28.471 1.051 1.216 2.136 2.137 2.812.468.339 1.837.801 1.947 1.344" class="C"/><path d="M88.983 69.778l-.348.839c-.836 1.959-1.624 3.807-.712 5.849.512 1.14 1.256 2.124 2.052 2.707.131.093.363.215.612.336.397.2.805.404 1.087.645.537-1.581.873-3.089.313-4.929-.231-.759-.781-1.553-1.363-2.392-.683-.988-1.381-2-1.641-3.055m2.776 11.213c-.14-.013-.243-.097-.265-.213-.051-.244-.741-.593-1.157-.801l-.688-.385c-.868-.632-1.679-1.695-2.223-2.915-1.003-2.248-.136-4.288.704-6.26l.843-2.196c.039-.14.187-.219.327-.183.145.037.231.177.195.315-.34 1.411.639 2.821 1.581 4.184.607.879 1.177 1.704 1.433 2.54.663 2.176.168 3.884-.492 5.736-.036.105-.141.179-.257.179" class="B"/><path d="M94.649 100.936c-.283-2.032-.656-3.649-2.153-5.193-1.564-1.612-5.271-2.367-5.877-4.801.552 2.819-.091 6.019 2.457 8.072.907.733 2.075 1.376 3.212 1.573l2.361.349" class="C"/><path d="M87.09 92.377l.075.9c.165 2.116.317 4.113 2.084 5.537.98.791 2.107 1.344 3.087 1.515l1.999.292c-.255-1.711-.637-3.255-2.035-4.699-.561-.575-1.417-1.044-2.328-1.539-1.065-.581-2.161-1.177-2.881-2.007m7.559 8.82c-.013 0-.025 0-.035-.004l-2.375-.347c-1.068-.185-2.287-.78-3.34-1.629-1.94-1.565-2.111-3.769-2.275-5.9l-.272-2.323c-.029-.141.065-.28.209-.309s.287.059.321.195c.348 1.412 1.876 2.241 3.352 3.047.947.515 1.843 1 2.459 1.636 1.599 1.652 1.955 3.395 2.227 5.335.011.083-.019.164-.079.224-.053.047-.12.076-.193.076" class="B"/><path d="M96.615 110.959c-.28-2.028-.656-3.648-2.155-5.189-1.564-1.613-5.267-2.365-5.875-4.797.556 2.815-.089 6.015 2.457 8.071.904.735 2.073 1.373 3.211 1.569l2.361.347" class="C"/><path d="M89.058 102.403l.072.903c.165 2.113.319 4.111 2.088 5.536.977.789 2.103 1.344 3.087 1.513l1.995.293c-.256-1.712-.636-3.257-2.036-4.7-.557-.576-1.415-1.041-2.323-1.537-1.072-.583-2.165-1.175-2.883-2.008m7.557 8.82c-.015 0-.024 0-.036-.001l-2.372-.348c-1.068-.188-2.288-.78-3.341-1.631-1.939-1.565-2.112-3.767-2.275-5.897l-.273-2.325c-.028-.141.067-.279.209-.308s.289.057.321.196c.352 1.411 1.879 2.239 3.355 3.044.947.515 1.84 1.001 2.457 1.636 1.599 1.653 1.955 3.395 2.227 5.339.009.081-.02.161-.076.22a.29.29 0 0 1-.196.076" class="B"/><path d="M98.039 121.56c-.415-2.007-.893-3.599-2.488-5.044-1.669-1.513-5.416-2.036-6.179-4.428.733 2.776.305 6.012 2.98 7.907.953.673 2.161 1.241 3.309 1.368l2.377.197" class="C"/><path d="M89.931 113.491l.136.893c.3 2.099.587 4.081 2.441 5.395 1.033.731 2.196 1.212 3.181 1.323l2.013.168c-.369-1.689-.849-3.209-2.339-4.563-.596-.541-1.484-.955-2.42-1.392-1.107-.513-2.236-1.04-3.013-1.824m8.108 8.333h-.021l-2.388-.201c-1.08-.117-2.333-.635-3.44-1.417-2.039-1.444-2.353-3.631-2.66-5.748l-.424-2.304c-.036-.136.048-.277.191-.317a.27.27 0 0 1 .333.173c.443 1.387 2.02 2.12 3.547 2.833.976.455 1.901.884 2.56 1.479 1.707 1.552 2.175 3.268 2.569 5.187.016.08-.005.168-.064.228a.27.27 0 0 1-.203.088" class="B"/><path d="M98.373 132.853c.032-2.047-.095-3.701-1.34-5.44-1.304-1.82-4.856-3.095-5.085-5.588.12 2.864-.999 5.94 1.203 8.335.791.857 1.848 1.656 2.941 2.015l2.281.679" class="C"/><path d="M92.194 123.31l-.061.903c-.161 2.113-.309 4.109 1.22 5.772.852.924 1.883 1.629 2.825 1.939l1.929.576c.007-1.727-.135-3.312-1.297-4.936-.468-.652-1.245-1.237-2.067-1.855-.969-.731-1.965-1.479-2.549-2.399m6.179 9.807c-.021 0-.049-.003-.075-.011l-2.292-.681c-1.032-.337-2.145-1.1-3.057-2.089-1.681-1.829-1.516-4.031-1.359-6.163l.084-2.337c-.004-.141.109-.265.255-.272.153-.004.276.095.287.237.136 1.441 1.519 2.481 2.859 3.489.857.644 1.668 1.256 2.18 1.972 1.332 1.861 1.42 3.636 1.391 5.593 0 .085-.041.163-.109.209-.047.035-.101.052-.163.052" class="B"/><path d="M102.151 141.905c-.527-1.983-1.099-3.548-2.772-4.908-1.749-1.42-5.521-1.743-6.419-4.089.892 2.732.641 5.984 3.419 7.733.992.624 2.231 1.125 3.383 1.191l2.389.073" class="C"/><path d="M93.6 134.276l.185.888c.42 2.081.817 4.047 2.743 5.256 1.072.673 2.256 1.093 3.251 1.151l2.016.063c-.457-1.668-1.028-3.161-2.588-4.431-.627-.508-1.535-.876-2.501-1.263-1.129-.456-2.287-.921-3.105-1.664m8.551 7.893h-.007c-.073 0-1.817-.04-2.399-.073-1.085-.063-2.364-.512-3.516-1.236-2.113-1.331-2.553-3.499-2.979-5.595l-.548-2.279a.26.26 0 0 1 .169-.328c.137-.047.288.023.341.159.521 1.355 2.137 2.008 3.701 2.636 1.003.401 1.948.783 2.639 1.344 1.791 1.456 2.353 3.145 2.859 5.041.021.08.004.165-.051.232-.051.061-.127.099-.211.099" class="B"/><path d="M106.925 149.782c-.867-1.864-1.697-3.311-3.587-4.375-1.976-1.112-5.747-.808-7.044-2.972 1.355 2.545 1.679 5.791 4.723 7.055 1.085.451 2.397.744 3.545.617l2.363-.325" class="C"/><path d="M97.165 143.679l.336.844c.781 1.979 1.515 3.851 3.625 4.723.967.405 1.987.627 2.875.627.18 0 .355-.009.531-.027l2-.272c-.747-1.569-1.565-2.945-3.332-3.94-.704-.397-1.665-.607-2.68-.829-1.195-.261-2.419-.529-3.355-1.125m6.836 6.721h0c-.957 0-2.055-.237-3.089-.667-2.319-.967-3.131-3.028-3.913-5.021l-.944-2.157c-.067-.125-.021-.281.111-.351s.289-.025.365.099c.749 1.249 2.46 1.627 4.109 1.988 1.056.232 2.056.449 2.833.888 2.023 1.139 2.873 2.712 3.701 4.497.032.075.029.163-.011.232a.27.27 0 0 1-.2.139l-2.372.321a5.06 5.06 0 0 1-.591.032" class="B"/><path d="M95.141 70.793c-2.383-.816-3.329-4.423-3.264-6.692.084-2.917 2.468-5.152 2.451-7.987-.328 2.721 2.317 4.907 2.448 7.596.121 2.451-1.067 4.825-1.635 7.083" class="C"/><g class="B"><path d="M94.272 58.076c-.24.745-.576 1.457-.904 2.157-.58 1.223-1.177 2.487-1.213 3.875-.064 2.117.772 5.383 2.803 6.327l.557-1.8c.527-1.599 1.075-3.252.993-4.911-.06-1.184-.651-2.305-1.217-3.391-.383-.729-.777-1.477-1.019-2.257m1.06 13.064l-.281-.095c-2.625-.904-3.507-4.744-3.443-6.952.045-1.495.665-2.811 1.264-4.08.532-1.127 1.033-2.188 1.156-3.348a4.66 4.66 0 0 1 .029-.583l.54.028a5.77 5.77 0 0 1-.027.572c.032 1.181.6 2.265 1.201 3.412.596 1.133 1.213 2.311 1.276 3.603.087 1.757-.475 3.456-1.015 5.1l-.629 2.06zm-.065 13.349c-.112 0-.211-.064-.255-.167-.211-.525-.743-.889-1.307-1.276-.956-.653-2.039-1.393-1.903-3.119.009-.145.144-.259.289-.244.152.011.265.137.251.285-.113 1.423.759 2.019 1.676 2.648.603.415 1.225.841 1.499 1.515a.26.26 0 0 1-.153.34c-.032.012-.069.017-.097.017m.269 6.587c-.125 0-.24-.084-.265-.208-.029-.144.061-.283.207-.312 2.633-.535 3.419-1.649 3.005-4.257-.023-.144.079-.275.224-.297.153-.021.287.076.312.22.451 2.857-.54 4.263-3.428 4.849-.019.004-.036.005-.055.005m2.775 15.209a.27.27 0 0 1-.272-.253c-.065-2.16-1.605-4.199-3.749-4.965a.26.26 0 0 1-.16-.337c.049-.136.207-.205.347-.156 2.348.837 4.035 3.075 4.108 5.44.001.148-.113.269-.267.272zm.345-5.331c-.028 0-.057-.005-.087-.015-.141-.049-.219-.197-.171-.333.204-.603.251-1.148.293-1.679.051-.657.108-1.335.463-2.099.061-.133.221-.191.357-.133s.196.216.136.349c-.316.68-.363 1.283-.415 1.924-.047.56-.095 1.139-.323 1.803-.036.112-.143.183-.255.183m-4.141-7.839c-.121 0-.232-.077-.261-.197l-.12-.512c-.279-1.228-.433-1.901-1.903-2.191-.148-.028-.243-.169-.212-.311s.173-.236.319-.207c1.816.359 2.041 1.345 2.324 2.596l.117.497c.036.141-.053.285-.2.319-.019.005-.04.005-.064.005m3.33 19.888c-.14 0-.26-.103-.273-.24-.108-1.209.328-2.416 1.224-3.393.209-.225.441-.404.665-.576.5-.38.889-.68.889-1.387 0-.148.124-.264.273-.264s.272.116.272.264c0 .964-.583 1.408-1.1 1.8-.204.159-.419.321-.592.516-.801.867-1.185 1.929-1.091 2.995.015.144-.095.271-.247.284-.007.001-.015.001-.021.001m3.186 7.44c-.133 0-.251-.095-.273-.228-.144-1.028.517-1.691 1.097-2.276.249-.247.483-.484.64-.731.076-.124.247-.16.373-.085s.168.244.088.364c-.189.296-.453.559-.712.817-.541.548-1.057 1.063-.944 1.839.021.145-.084.277-.233.297-.012.003-.021.003-.036.003m-1.57 1.881c-.599 0-1.167-.135-1.62-.656-.099-.112-.083-.277.031-.371s.285-.081.381.032c.52.592 1.252.504 2.175.388l.156-.021c.153-.013.285.084.303.229s-.085.277-.233.295l-.156.019-1.036.085m1.427 10.432c-.124 0-.236-.085-.261-.209-.033-.141.059-.281.205-.311 1.701-.356 1.947-2.388 1.825-3.535-.017-.144.093-.275.243-.289s.28.089.296.233c.192 1.771-.433 3.725-2.251 4.107-.021.004-.039.004-.057.004m1.967 9.547c-.459 0-.819-.173-1.039-.517-.077-.125-.04-.287.085-.365s.295-.039.376.085c.292.461 1.048.22 1.355.095.14-.055.299.007.355.143s-.008.288-.145.344c-.364.145-.693.216-.987.216m-2.303-8.306c-.997 0-1.625-.244-2.377-1.14-.095-.115-.08-.279.04-.372a.27.27 0 0 1 .38.04c.789.943 1.309 1.035 2.947.889.153-.011.283.096.299.24.011.145-.1.272-.249.287l-1.039.056"/><path d="M104.406 140.797c-.139.169-.329.523-.579.54-.345.024-.345.552 0 .527.463-.033.695-.372.964-.693.212-.261-.168-.636-.385-.373m-8.954-62.529a6.73 6.73 0 0 1-.573-.029l-.371-.016c-.153.013-.284-.089-.299-.233-.021-.143.089-.276.239-.293.129-.009.281 0 .475.017.805.068 2.023.171 2.509-1.555.04-.14.192-.223.333-.184.147.04.229.184.189.325-.483 1.711-1.643 1.968-2.503 1.968"/><path d="M112.296 155.09c-1.808-2.295-1.281-3.528-3.924-5.731l.333-1.009c.1-.324-.423-.464-.521-.139l-.213.648-1.301-2.06-1.049-1.8c-.269-.851-.611-1.549-.945-2.227l-.159-.321c-.449-.924-.775-3.161-.856-4.379-.125-1.947-1.095-3.557-1.891-4.565l-.821-.975c-.773-.884-1.501-1.72-1.903-2.951-.476-1.473-.22-3.26.719-5.023.865-1.623 1.656-3.371 1.595-5.159-.04-1.301-.763-2.289-1.464-3.248-.363-.495-.736-1.011-1.007-1.553-1.621-3.277-1.119-5.144-.536-7.307.272-1.016.555-2.068.639-3.337.151-2.385-.236-4.124-1.213-5.468-.495-.68-.992-1.14-1.428-1.547-.908-.844-1.507-1.399-1.496-3.276.011-1.745.563-2.445 1.097-3.117.456-.576.929-1.173.973-2.312.057-1.633-.655-2.933-1.344-4.189-.52-.948-1.007-1.844-1.184-2.861-.263-1.519.124-3.529.94-4.891.183-.301.352-.473.516-.636.331-.339.617-.627.72-1.629.092-1.009-.295-1.777-.669-2.523l-.436-.952-.612.219a11.02 11.02 0 0 0 .464 1.011c.367.727.683 1.353.603 2.189-.073.78-.249.956-.539 1.249-.173.171-.388.387-.609.755-.897 1.501-1.309 3.637-1.017 5.312.192 1.121.731 2.105 1.249 3.052.68 1.239 1.319 2.409 1.264 3.872-.031.939-.403 1.405-.835 1.949-.575.723-1.221 1.539-1.232 3.499-.015 2.152.781 2.887 1.697 3.736.413.388.885.823 1.343 1.453.891 1.225 1.241 2.833 1.093 5.067-.076 1.207-.352 2.229-.615 3.217-.587 2.187-1.141 4.253.579 7.739.295.593.691 1.127 1.064 1.645.673.923 1.312 1.796 1.347 2.9.056 1.731-.753 3.412-1.523 4.851-1.02 1.916-1.291 3.869-.76 5.504.435 1.355 1.244 2.279 2.023 3.172l.803.945c.736.94 1.643 2.433 1.756 4.223.068 1.027.38 3.503.92 4.607l.157.328c.325.655.659 1.331.909 2.135.139.444.529 1.047 1.123 1.957l1.56 2.508a1.47 1.47 0 0 1-.663-.091c-.325-.12-.467.388-.143.508a1.97 1.97 0 0 0 1.117.071c.016-.001.023-.011.035-.015a.45.45 0 0 0 .041-.017c.024-.013.041-.024.055-.045.027-.028 1.771 1.577 1.94 2.889.011.024.017.049.029.071.435.984.96 1.883 1.903 2.572.311.225.535-.205.303-.5m56.413-92.671c-.492-4.055-4.603-4.937-5.521-5.083-.091-.932-.916-1.265-1.661-1.264-.608 0-1.064.164-1.352.489-.252.287-.313.621-.32.839-3.159.341-4.588 2.515-5.205 3.976l-.308-.38-.109.544c-.356 1.792-.501 5.208.617 6.745 1.253 1.717 3.287 2.784 5.307 2.781 2.473-.001 4.428-.488 5.811-1.44 1.888-1.299 2.799-3.469 2.864-6.825l.009-.457z"/></g><path d="M166.081 65.153l-.42.617-.059-.737c-.093-1.097-.552-2.752-1.544-3.908-1.193.811-1.615 1.921-2.028 2.999l-.257.656-.399.959-.104-1.029c-.14-1.435-.74-2.561-1.931-3.632-.992.704-1.704 2.12-2.183 3.075l-.345.663-.292.497-.187-.54c-.216-.631-1.152-1.885-1.679-2.564-.276 1.867-.252 4.579.623 5.781 1.16 1.588 3.031 2.575 4.884 2.571 1.619-.005 3.897-.239 5.505-1.349 1.681-1.153 2.497-3.004 2.635-5.963-.912.516-1.512.86-2.22 1.905" class="E"/><path d="M156.572 64.109l.091-.181c.531-1.057 1.333-2.655 2.532-3.389l.171-.101.144.127c1.101.945 1.781 1.968 2.093 3.16.42-1.095.945-2.292 2.336-3.147l.188-.116.145.159c1.144 1.212 1.581 2.816 1.737 3.729.628-.761 1.231-1.103 2.012-1.545l.276-.16c-.4-4.384-5.301-4.924-5.349-4.927l-.191-.017v-.184c0-.967-.932-1.037-1.216-1.037-.513 0-.861.116-1.068.345-.273.307-.219.727-.219.731l.029.212-.217.021c-3.247.265-4.609 2.571-5.143 3.957.408.521 1.216 1.577 1.648 2.364" class="D"/><path d="M162.171 71.99c.039.023.064.056.091.087h-.005zm4.572-2.467c-.157-.055-.324-.077-.488-.064-.563.04-1.049.451-1.365.795-.087-.633-.461-1.367-1.476-1.499-.112-.015-.224-.021-.332-.015-.708.049-1.192.543-1.477.952a1.73 1.73 0 0 0-.467-.805c-.316-.292-.745-.424-1.272-.388-.747.051-1.203.564-1.437 1.045-.273-.529-.796-1.08-1.649-1.019l-.091.007c-.564.063-.993.275-1.267.629-.187.239-.271.503-.303.725-.26-.176-.677-.339-1.301-.296l-.089.007c-.5.049-.872.261-1.109.632-.579.909-.133 2.533.073 3.159-.163 1.812-.011 4.783 1.097 6.099 1.329 1.576 3.36 2.475 5.308 2.341 2.388-.165 4.24-.76 5.508-1.767 1.636-1.295 2.365-3.299 2.308-6.24.483-.512.853-1.291.883-1.352.239-.817.323-2.48-1.053-2.947" class="B"/><path d="M167.451 72.332c-.004 0 .548-1.979-.809-2.441a.86.86 0 0 0-.325-.043c-.627.043-1.233.796-1.416 1.084l-.487.772.113-.903c.008-.06.18-1.487-1.133-1.659a1.05 1.05 0 0 0-.248-.009c-.941.063-1.431 1.236-1.435 1.248l-.413 1.008.021-1.085c.003-.007.011-.727-.429-1.133-.232-.215-.555-.311-.961-.281-1.023.071-1.253 1.243-1.265 1.291l-.177.991-.213-.983c-.016-.056-.309-1.351-1.435-1.273l-.068.007c-.453.052-.787.209-.992.472-.315.403-.235.932-.235.936l.188 1.185-.567-1.063c-.013-.021-.313-.536-1.285-.472l-.077.007c-.373.036-.633.179-.805.448-.613.961.199 3.075.208 3.093l.021.096c.393.432 1.439 1.595 1.937 2.403l.113-.269c.436-1.051 1.099-2.639 2.197-3.415l.119-.088.123.088c1.189.889 1.904 1.849 2.268 3.045.339-1.117.737-2.369 2.065-3.315l.139-.099.123.113c1.236 1.144 1.755 2.751 1.948 3.588.832-1.1 2.216-1.964 2.28-2.005.475-.419.909-1.332.913-1.339" class="D"/><path d="M164.322 76.29l-.289.499-.091-.565c-.167-1.076-.735-2.675-1.8-3.733-1.135.872-1.473 1.993-1.799 3.077l-.207.649-.257.759-.133-.788c-.239-1.4-.911-2.465-2.169-3.436-.932.741-1.532 2.185-1.935 3.151l-.292.665-.193.396-.173-.408c-.221-.512-1.031-1.511-1.807-2.381-.063 1.767.187 4 1.027 4.999 1.224 1.457 3.096 2.285 4.885 2.163 1.568-.107 3.745-.484 5.223-1.655 1.459-1.157 2.119-2.872 2.123-5.472-.537.381-1.599 1.192-2.112 2.081" class="E"/><path d="M160.553 82.877c.039.028.057.061.083.096v-.003zm4.784-2.053c-.151-.067-.312-.103-.479-.105-.565-.015-1.088.356-1.433.669-.028-.637-.331-1.4-1.333-1.625a2.11 2.11 0 0 0-.331-.039c-.705-.013-1.235.437-1.557.819-.048-.272-.156-.587-.391-.844-.288-.321-.7-.491-1.227-.5-.752-.016-1.251.456-1.532.916-.22-.549-.692-1.144-1.551-1.16h-.089c-.564.013-1.012.184-1.321.515-.207.22-.312.476-.365.695-.243-.197-.643-.397-1.271-.412h-.085c-.505.005-.895.187-1.165.532-.661.857-.371 2.512-.227 3.155-.325 1.788-.453 4.759.528 6.167 1.177 1.689 3.119 2.763 5.072 2.8 2.389.047 4.292-.384 5.651-1.276 1.743-1.147 2.659-3.073 2.873-6.012.533-.465.973-1.211 1.008-1.267.313-.793.551-2.441-.775-3.027" class="B"/><path d="M165.78 83.681c-.003 0 .733-1.919-.579-2.5a.83.83 0 0 0-.32-.072c-.628-.011-1.301.684-1.507.952l-.564.727.204-.888c.012-.06.317-1.465-.98-1.751a.96.96 0 0 0-.245-.031c-.943-.021-1.537 1.104-1.545 1.116l-.505.968.127-1.079c0-.008.079-.727-.323-1.168-.211-.233-.527-.357-.933-.364-1.024-.019-1.363 1.125-1.376 1.175l-.276.971-.117-.999c-.008-.056-.183-1.372-1.311-1.393h-.067c-.455.012-.803.141-1.032.385-.351.373-.323.905-.323.909l.081 1.195-.469-1.104c-.008-.021-.265-.563-1.237-.581l-.077-.003c-.376.003-.647.125-.839.373-.703.903-.095 3.08-.084 3.101l.008.099c.353.461 1.284 1.711 1.708 2.561l.139-.257c.531-1.009 1.339-2.531 2.504-3.211l.132-.075.109.1c1.103.987 1.727 2.009 1.976 3.231.437-1.083.956-2.293 2.369-3.121l.144-.085.112.125c1.124 1.247 1.489 2.891 1.607 3.745.932-1.024 2.388-1.765 2.459-1.8.509-.373 1.027-1.244 1.031-1.252" class="D"/><path d="M162.296 87.351l-.333.469-.036-.572c-.065-1.085-.484-2.724-1.444-3.873-1.215.769-1.656 1.855-2.084 2.903l-.264.629-.325.736-.064-.799c-.105-1.413-.673-2.535-1.831-3.615-1.001.66-1.736 2.047-2.228 2.971l-.348.635-.235.381-.136-.421c-.167-.533-.883-1.6-1.576-2.533-.224 1.752-.184 3.999.555 5.068 1.087 1.56 2.875 2.551 4.667 2.585 1.571.032 3.773-.151 5.356-1.192 1.555-1.023 2.379-2.671 2.627-5.26-.573.332-1.704 1.048-2.3 1.888" class="E"/><path d="M159.47 94.106c.036.027.056.064.081.096v-.003zm4.78-2.053c-.148-.067-.311-.103-.475-.105-.565-.012-1.087.356-1.436.671-.028-.637-.331-1.401-1.331-1.623-.109-.025-.223-.04-.333-.043-.705-.015-1.233.437-1.557.819a1.69 1.69 0 0 0-.389-.844c-.287-.321-.701-.488-1.228-.497-.752-.017-1.251.455-1.533.913-.219-.549-.692-1.143-1.547-1.16h-.087c-.569.013-1.015.187-1.323.513-.211.22-.315.481-.369.697-.245-.199-.641-.399-1.268-.411l-.089-.003c-.5.007-.893.187-1.165.532-.66.857-.371 2.512-.221 3.155-.331 1.791-.456 4.759.525 6.167 1.175 1.689 3.119 2.763 5.069 2.8 2.395.048 4.292-.38 5.652-1.275 1.747-1.144 2.659-3.075 2.879-6.009.529-.469.972-1.212 1.003-1.271.313-.789.553-2.441-.776-3.027" class="B"/><path d="M164.694 94.912c-.003 0 .733-1.92-.579-2.5a.77.77 0 0 0-.315-.072c-.632-.012-1.307.683-1.512.951l-.564.729.203-.888c.016-.06.319-1.468-.979-1.753a.96.96 0 0 0-.245-.031c-.943-.019-1.537 1.103-1.541 1.115l-.505.971.123-1.08c.003-.008.079-.724-.323-1.168-.211-.233-.523-.355-.929-.363-1.028-.019-1.361 1.128-1.379 1.175l-.271.969-.127-.999c-.005-.056-.177-1.371-1.305-1.393h-.068c-.457.012-.8.141-1.031.384-.351.375-.325.909-.325.913l.081 1.193-.469-1.108c-.008-.02-.261-.561-1.236-.581h-.076c-.373.005-.649.127-.841.373-.703.903-.092 3.08-.085 3.101l.012.097c.356.464 1.285 1.713 1.705 2.563l.14-.26c.533-1.007 1.34-2.527 2.503-3.208l.132-.075.112.101c1.1.985 1.728 2.005 1.976 3.231.439-1.084.955-2.295 2.367-3.121l.147-.087.109.127c1.124 1.248 1.492 2.891 1.609 3.743.929-1.023 2.385-1.763 2.455-1.797.509-.373 1.028-1.243 1.032-1.252" class="D"/><path d="M161.21 98.579l-.333.469-.035-.572c-.067-1.083-.487-2.723-1.445-3.873-1.213.769-1.656 1.856-2.084 2.904l-.261.628-.327.737-.061-.797c-.109-1.415-.677-2.537-1.836-3.612-.997.657-1.732 2.04-2.227 2.968l-.348.635-.233.38-.133-.42c-.171-.533-.887-1.6-1.58-2.533-.224 1.749-.185 4.001.563 5.065 1.079 1.561 2.868 2.551 4.659 2.587 1.571.032 3.776-.151 5.356-1.191 1.559-1.023 2.379-2.673 2.627-5.263-.573.332-1.704 1.049-2.3 1.888" class="E"/><path d="M158.218 106.071c.036.027.055.061.083.093l-.003-.004zm4.78-2.055a1.23 1.23 0 0 0-.475-.107c-.565-.009-1.092.356-1.436.671-.029-.639-.331-1.4-1.331-1.623-.111-.025-.223-.039-.331-.043-.708-.011-1.237.437-1.557.819a1.71 1.71 0 0 0-.393-.843c-.288-.321-.7-.487-1.227-.5-.752-.015-1.252.457-1.533.916-.217-.551-.691-1.145-1.547-1.16h-.088c-.569.013-1.016.185-1.321.515-.208.221-.315.476-.371.699-.241-.204-.64-.4-1.268-.413l-.088-.001c-.5.003-.893.181-1.165.531-.66.857-.371 2.513-.223 3.153-.333 1.789-.455 4.76.528 6.167 1.173 1.691 3.116 2.763 5.068 2.803 2.392.048 4.292-.383 5.652-1.275 1.747-1.148 2.659-3.076 2.876-6.013.531-.467.971-1.208 1.007-1.268.312-.792.552-2.441-.777-3.027" class="B"/><path d="M163.44 106.873s.733-1.919-.577-2.5c-.1-.044-.208-.068-.316-.068-.629-.015-1.305.68-1.512.949l-.563.725.201-.887c.013-.059.317-1.465-.975-1.751a.99.99 0 0 0-.249-.032c-.937-.02-1.537 1.104-1.541 1.116l-.505.972.124-1.083c.003-.007.076-.724-.324-1.168-.209-.233-.521-.353-.933-.361-1.024-.021-1.361 1.127-1.375 1.172l-.273.971-.12-.999c-.008-.056-.183-1.372-1.308-1.393l-.069.003c-.456.008-.803.139-1.032.383-.349.373-.321.905-.321.909l.079 1.196-.465-1.105c-.013-.023-.268-.563-1.239-.583l-.079-.001c-.372.004-.648.125-.84.373-.703.904-.092 3.08-.084 3.101l.011.099c.353.461 1.283 1.712 1.705 2.56l.14-.256c.533-1.009 1.341-2.531 2.505-3.209l.129-.076.113.1c1.099.991 1.725 2.009 1.975 3.231.439-1.083.955-2.295 2.368-3.119l.147-.088.109.127c1.124 1.247 1.488 2.889 1.607 3.744.931-1.024 2.388-1.764 2.453-1.796.515-.377 1.031-1.248 1.035-1.256" class="D"/><path d="M159.957 110.543l-.335.469-.036-.571c-.065-1.084-.484-2.725-1.444-3.875-1.213.769-1.655 1.855-2.084 2.905l-.263.627-.325.736-.061-.796c-.108-1.417-.676-2.537-1.835-3.615-1.003.657-1.732 2.044-2.227 2.972l-.349.631-.232.381-.135-.421c-.169-.531-.885-1.6-1.58-2.533-.223 1.755-.184 4.001.559 5.068 1.084 1.563 2.873 2.551 4.663 2.585 1.572.032 3.776-.147 5.356-1.188 1.557-1.023 2.376-2.675 2.628-5.263-.575.331-1.704 1.047-2.3 1.887" class="E"/><path d="M155.673 117.238c.036.028.057.06.084.096h-.003zm4.785-2.056c-.155-.064-.313-.101-.479-.105-.567-.009-1.091.357-1.437.673-.028-.639-.325-1.403-1.328-1.623a1.42 1.42 0 0 0-.331-.041c-.707-.016-1.239.436-1.559.817-.051-.272-.16-.585-.389-.844-.291-.321-.7-.489-1.232-.501-.747-.013-1.248.456-1.528.92-.221-.552-.693-1.145-1.551-1.163h-.088c-.567.012-1.016.187-1.323.513-.209.224-.312.477-.369.696-.244-.2-.639-.397-1.268-.412h-.087c-.503.005-.891.185-1.167.532-.659.857-.367 2.515-.221 3.152-.331 1.791-.455 4.759.524 6.169 1.177 1.689 3.12 2.763 5.075 2.8 2.388.047 4.291-.384 5.652-1.276 1.741-1.147 2.659-3.073 2.872-6.008.532-.469.971-1.211 1.007-1.273.316-.787.552-2.439-.773-3.027" class="B"/><path d="M160.9 118.042c-.003 0 .732-1.921-.579-2.5a.86.86 0 0 0-.317-.072c-.628-.011-1.305.684-1.509.953l-.561.727.201-.889c.013-.057.315-1.464-.979-1.749-.084-.02-.168-.032-.247-.033-.941-.019-1.54 1.105-1.543 1.116l-.508.973.125-1.083c.004-.007.077-.723-.324-1.167-.208-.232-.523-.357-.929-.364-1.024-.023-1.364 1.125-1.376 1.176l-.276.968-.12-.999c-.012-.056-.18-1.371-1.308-1.392h-.067c-.456.009-.801.14-1.035.384-.349.373-.321.908-.321.911l.083 1.195-.473-1.107c-.008-.021-.26-.565-1.232-.583h-.077c-.376.004-.652.124-.844.373-.701.904-.091 3.08-.084 3.103l.013.095c.352.465 1.284 1.715 1.705 2.563l.14-.256c.532-1.009 1.339-2.529 2.504-3.209l.131-.075.112.097c1.099.989 1.724 2.012 1.976 3.232.437-1.083.955-2.296 2.365-3.121l.145-.083.113.125c1.123 1.245 1.485 2.892 1.604 3.739.931-1.019 2.388-1.76 2.457-1.796.512-.371 1.028-1.244 1.033-1.252" class="D"/><path d="M157.414 121.707l-.331.473-.036-.572c-.069-1.087-.487-2.723-1.447-3.873-1.213.769-1.656 1.852-2.084 2.905l-.261.627-.327.737-.063-.801c-.104-1.415-.675-2.532-1.833-3.608-1 .656-1.733 2.04-2.227 2.967l-.348.635-.233.38-.135-.419c-.169-.533-.887-1.599-1.581-2.535-.224 1.751-.184 4 .56 5.071 1.083 1.556 2.873 2.545 4.661 2.583 1.572.028 3.776-.151 5.36-1.191 1.555-1.025 2.376-2.675 2.624-5.263-.575.331-1.705 1.048-2.3 1.884" class="E"/><path d="M153.651 128.37c.035.023.056.057.083.092h-.003zm4.78-2.055c-.148-.071-.308-.105-.475-.108-.565-.008-1.088.355-1.437.672-.028-.643-.329-1.401-1.328-1.625a1.66 1.66 0 0 0-.331-.04c-.708-.011-1.239.437-1.56.819-.047-.272-.156-.585-.389-.843-.288-.324-.701-.491-1.229-.499-.751-.016-1.249.453-1.529.915-.221-.552-.693-1.145-1.551-1.16l-.088-.004c-.569.013-1.012.191-1.323.515-.205.223-.311.48-.369.699-.24-.199-.64-.399-1.268-.413h-.087c-.503.004-.893.184-1.164.529-.664.86-.369 2.516-.224 3.159-.331 1.788-.456 4.759.527 6.163 1.175 1.693 3.117 2.761 5.072 2.801 2.389.049 4.291-.381 5.648-1.275 1.745-1.145 2.66-3.076 2.88-6.007.528-.469.968-1.215 1.003-1.272.312-.792.552-2.44-.777-3.025" class="B"/><path d="M158.876 129.172c-.003 0 .735-1.921-.58-2.5-.097-.047-.204-.071-.316-.071-.628-.015-1.304.681-1.511.952l-.563.723.204-.884c.013-.057.317-1.465-.983-1.751-.079-.021-.159-.032-.241-.035-.941-.019-1.539 1.104-1.544 1.117l-.505.971.123-1.081c.004-.009.08-.725-.324-1.165-.208-.235-.521-.357-.929-.364-1.027-.021-1.361 1.125-1.376 1.172l-.276.972-.12-.997c-.007-.057-.18-1.372-1.308-1.393l-.067.001c-.456.009-.801.139-1.031.38-.353.373-.323.909-.323.913l.076 1.195-.467-1.105c-.009-.023-.263-.563-1.235-.583h-.077c-.376.003-.648.124-.844.373-.701.903-.091 3.079-.084 3.101l.013.095c.355.465 1.284 1.715 1.707 2.563l.139-.259c.532-1.005 1.339-2.527 2.504-3.207l.132-.077.111.101c1.099.988 1.725 2.008 1.976 3.231.437-1.083.956-2.296 2.365-3.121l.147-.083.108.121c1.127 1.249 1.493 2.892 1.609 3.744.929-1.021 2.387-1.761 2.456-1.797.512-.373 1.028-1.244 1.033-1.252" class="D"/><path d="M155.391 132.839l-.335.472-.031-.572c-.067-1.085-.488-2.727-1.447-3.872-1.216.767-1.657 1.855-2.085 2.9l-.261.632-.327.733-.063-.797c-.109-1.413-.675-2.536-1.833-3.613-1 .657-1.733 2.043-2.227 2.971l-.348.635-.235.377-.133-.42c-.169-.532-.887-1.597-1.579-2.532-.224 1.752-.184 4 .557 5.068 1.085 1.556 2.871 2.547 4.664 2.583 1.569.032 3.773-.149 5.355-1.188 1.559-1.023 2.38-2.672 2.627-5.261-.575.329-1.705 1.049-2.3 1.885" class="E"/><path d="M151.679 139.171c.033.025.055.061.083.095h-.001zm4.781-2.055c-.153-.065-.312-.1-.479-.104-.565-.011-1.088.353-1.433.669-.028-.639-.331-1.404-1.331-1.625-.112-.024-.221-.036-.333-.039-.705-.015-1.236.435-1.557.819-.048-.271-.156-.587-.389-.844-.287-.321-.701-.491-1.228-.499-.752-.017-1.251.456-1.532.915-.22-.549-.692-1.143-1.551-1.163h-.084c-.572.016-1.015.185-1.323.517a1.55 1.55 0 0 0-.372.695c-.243-.201-.64-.397-1.265-.409h-.088c-.501.004-.895.18-1.165.529-.664.857-.367 2.513-.223 3.151-.329 1.792-.456 4.761.524 6.169 1.173 1.691 3.119 2.763 5.072 2.801 2.393.047 4.291-.384 5.651-1.276 1.747-1.147 2.659-3.073 2.877-6.012.531-.465.973-1.207 1.003-1.267.315-.789.555-2.441-.773-3.028" class="B"/><path d="M156.902 139.976c-.003 0 .733-1.92-.579-2.501a.89.89 0 0 0-.315-.071c-.633-.011-1.307.684-1.512.952l-.564.729.203-.889c.016-.059.319-1.465-.979-1.751a1.03 1.03 0 0 0-.245-.036c-.939-.017-1.537 1.108-1.545 1.121l-.501.969.123-1.081c0-.008.076-.724-.323-1.168-.211-.233-.527-.353-.929-.364-1.028-.021-1.361 1.125-1.38 1.175l-.273.969-.12-.997c-.008-.057-.183-1.372-1.311-1.393h-.065c-.456.011-.801.143-1.033.381-.351.377-.323.909-.323.913l.081 1.196-.469-1.108c-.008-.019-.263-.56-1.235-.577l-.077-.004c-.373.004-.649.123-.844.372-.7.905-.091 3.08-.084 3.104l.013.097c.352.461 1.281 1.711 1.705 2.557l.14-.257c.533-1.005 1.34-2.528 2.504-3.207l.131-.075.112.099c1.1.988 1.724 2.008 1.973 3.228.441-1.079.957-2.293 2.369-3.115l.144-.088.113.124c1.123 1.248 1.491 2.893 1.605 3.747.932-1.024 2.388-1.763 2.459-1.8.509-.373 1.023-1.244 1.031-1.252" class="D"/><path d="M153.418 143.642l-.333.469-.036-.571c-.065-1.085-.485-2.723-1.444-3.871-1.215.768-1.653 1.853-2.084 2.901l-.264.629-.325.736-.06-.799c-.109-1.413-.677-2.532-1.835-3.613-1.001.659-1.736 2.041-2.228 2.969l-.348.639-.235.375-.132-.42c-.171-.529-.888-1.599-1.58-2.531-.227 1.752-.184 3.997.559 5.067 1.083 1.56 2.871 2.549 4.663 2.585 1.571.028 3.773-.151 5.356-1.192 1.559-1.023 2.379-2.671 2.627-5.26-.579.332-1.704 1.048-2.3 1.885" class="E"/></svg>